<svg version="1.0" xmlns="http://www.w3.org/2000/svg" width="1385.333" height="810.667" viewBox="0 0 1039 608"><path d="M386.7 12.7c-.9.2-2.8 2.3-4.2 4.6-3.7 6.4-10.6 12.7-15.1 13.8-6.9 1.6-9.4 1.2-9.4-1.4 0-2.9-1.8-4.7-4.6-4.7-3 0-4.8 2.5-4.1 5.8l.6 2.9-8.1.9c-7.4.9-8.1.8-9.4-1-.8-1.1-1.4-2.7-1.4-3.5 0-2.4-5-8.1-7.1-8.1-1 0-10.3 6.5-20.7 14.4C232 91 159.2 137 32.3 207.6L0 225.5v7.4l11.2-6.3c6.2-3.5 12.8-7.1 14.6-8l3.2-1.7v33.9l-14.3 6.5C.5 263.8.5 263.8.2 267.4c-.2 2-.1 3.6.2 3.6.2 0 2.5-.9 5-2l4.6-1.9V409H0v40.3l17.7-.7c36.9-1.5 146.5-2.3 218.3-1.5 41 .4 74.6.7 74.7.8.3.1-.2 40-1.2 109.8L309 591h29v-16h39v16h29.2l-.6-9.8c-.3-5.3-.8-27.7-1.1-49.7-.3-22-.8-49.4-1.2-60.9l-.6-20.9 29.4.7c192.2 4.5 423 17 513.7 27.9l10.3 1.2-.1 33.2-.1 33.3H967v-18h16v18h11.1l-.7-30.9-.7-30.9 2.4.4c15.8 2.5 37.3 7.1 42.3 9 1.4.5 1.6-.6 1.6-8.4 0-8.7-.1-9-2.5-9.6-2.2-.6-2.5-1.1-2.4-5.4l.1-4.7 2.3 5 2.4 5v-7.9c.1-7.6-.2-8.8-8.9-31.2-19.7-51.1-32.4-90.8-38-118.6-1.8-8.9-4.9-10.1-8.5-3.3-2.1 4.2-2.2 4.2-14.7 5.8-3.6.5-4.8.3-4.8-.7 0-3.2-3.2-7.6-5.5-7.6-2 0-3.3 2-9.3 14.2-14.2 28.7-28.6 49.9-47.2 69.2-25.2 26-50.1 40.8-81.3 48.1-5.1 1.2-6.6 1.1-13.5-.5-29.8-7.2-66.1-25.9-101.7-52.5-65.1-48.5-143.1-134.2-229-251.5-37-50.6-81.5-115.1-81.6-118.4-.1-2.9-3.2-8.1-5-8.2-.8-.1-2.2 0-3.2.3zM314.2 57l-.5 20.5-4.3 3.2c-2.4 1.8-4.6 3.3-4.9 3.3-.7 0-.4-35 .3-38.8.4-1.9 9-9.9 9.7-9 .1.2 0 9.5-.3 20.8zm91.6 31.5c.2 21.4.2 41 0 43.5l-.3 4.5-3.8-5.1c-4.5-6.2-4.4-5.2-5.2-58.9l-.6-37 4.8 7 4.8 7 .3 39zM302 66.2l-.1 20.3-8.6 6c-4.8 3.3-9.1 6.1-9.5 6.3-.4.2-.8-8.6-.8-19.5V59.5l8.8-6.7c4.8-3.6 9-6.7 9.5-6.7.4-.1.7 9 .7 20.1zM415.5 64l6.8 10 .5 42c.3 23.1.2 42-.1 42-.3 0-3.8-4.1-7.6-9.1l-7.1-9.2V96.9c0-23.6.1-42.9.3-42.9.2 0 3.4 4.5 7.2 10zm-48.1-4.4c.3 2.6.6 9.2.6 14.8 0 8.5-.2 9.8-1.4 8.6-3.1-3.4-17.8-25.1-17.3-25.6.3-.3 3.9-.9 7.9-1.4 4-.4 7.8-.8 8.4-.9.6 0 1.4 2 1.8 4.5zm9.9-1.8 2.7 2.9-.2 20.2-.3 20.3-4.7-6.5-4.8-6.5V55h2.3c1.3 0 3.5 1.3 5 2.8zm-42.8 3.7c-2.2 1.8-4.2 3.2-4.4 2.9-.8-.8 5.2-6.4 6.8-6.4 1 .1.1 1.4-2.4 3.5zM280 82v19.9l-9 6.1c-4.9 3.3-9.2 6-9.6 6-1.3 0 .6-39.4 1.9-40.2.7-.4 4.6-3.2 8.7-6.2 4.1-3.1 7.6-5.6 7.8-5.6.1 0 .2 9 .2 20zm69 9.1v21.7l-2.9.4c-2.8.4-2.8.4-3.5-6.1-.8-9.2-.8-42.6.1-43.5.4-.4 2 .8 3.5 2.6l2.7 3.3.1 21.6zm-8.3 22.5c-.2.2-2.4.7-4.9 1l-4.6.6-.4-20.3-.5-20.4 5.1-4.7 5.1-4.7.3 24.1c.1 13.2.1 24.3-.1 24.4zm16.1-32.4c3.2 4.6 3.2 4.8 3.2 17.3 0 9.2-.3 12.7-1.2 12.9-.7.3-3 .7-5 1l-3.8.5V92.3c0-23.1-.6-22.1 6.8-11.1zM259 96.7v19.8l-8.9 5.7c-4.9 3.2-9.2 5.8-9.5 5.8-.8 0-.6-29.5.2-34.7.7-4 1.3-4.7 9.2-10.2 4.7-3.3 8.6-6 8.8-6.1.1 0 .2 8.9.2 19.7zm173.7-8 6.8 9.8.3 41c.2 35.3.1 40.8-1.1 39.5-.8-.8-4.2-5-7.6-9.3l-6.1-7.8v-41.5c0-22.8.2-41.4.4-41.4.3 0 3.5 4.4 7.3 9.7zM313.2 171l-.9 68.5-.1-76.1c-.1-41.8.1-76.4.6-76.8 1.2-1.2 1.2 12.2.4 84.4zm51.7-78.5c2.9 4.1 3.2 5 2.9 11.2l-.3 6.8-3.2.3-3.3.3V99.6c0-6.4.1-11.6.3-11.6.2 0 1.8 2 3.6 4.5zm-55 166.7L310 416h-9.3l.7-68.8c.3-37.8 1.1-110.3 1.7-161.2l1-92.5 2.2-1.9 2.2-1.8.6 6.3c.4 3.5.7 76.9.8 163.1zM238 111v19.1l-10 6.4c-5.5 3.6-10.2 6.5-10.6 6.5-1.2 0 .7-38.4 1.9-39.2.7-.4 4.8-3.2 9.2-6.2 4.4-3 8.3-5.5 8.8-5.5.4-.1.7 8.5.7 18.9zm63 75.1c-.5 49.7-1.2 105-1.5 122.9-.2 17.9-.5 49-.5 69.2V415h-10V259.2l.1-155.7 6.1-4.2c3.4-2.4 6.3-4.1 6.5-4 .1.2-.2 41-.7 90.8zm74.6-76.9c-.6.4-2.1.8-3.3.8-2.1 0-2.3-.5-2.3-5.1v-5.2l3.4 4.4c2.2 3 3 4.6 2.2 5.1zm74 3.5 6.9 9.8.3 39.5.2 39.5-3-3.5c-1.7-1.9-5-5.9-7.3-8.9l-4.2-5.4-.4-40.4c-.1-22.1-.1-40.3.1-40.3.3 0 3.6 4.4 7.4 9.7zM286 260.5c0 136.7-.2 154.5-1.5 154.5s-1.5-17.7-1.5-153.3c0-149.2.1-155.7 2.7-155.7.2 0 .3 69.5.3 154.5zm-71-134.6v18.9l-8.7 5.5c-4.9 3-9.4 5.7-10 6.1-1 .6-1.3-3.3-1.3-18.1l.1-18.8 9.7-6.2c5.3-3.4 9.8-6.3 10-6.3.1 0 .2 8.5.2 18.9zm64.6 288.8c-.2.2-3.1.1-6.5-.3l-6.1-.7V119.1l6.3-4.3 6.2-4.4.3 152c.1 83.5 0 152.1-.2 152.3zM264 267.5c0 129.6-.2 146.5-1.5 146.5s-1.5-16.8-1.5-145.3c0-141.4.1-147.7 2.7-147.7.2 0 .3 65.9.3 146.5zm-72-126.8-.1 18.8-10.3 6.2c-5.7 3.5-10.7 6.3-11 6.3-.3 0-.6-8.3-.6-18.4v-18.3l10.7-6.7c6-3.6 10.9-6.6 11-6.6.2 0 .3 8.4.3 18.7zm67 125.7c0 77.7-.3 142.8-.6 144.6l-.7 3.2-7.6-.6c-4.1-.4-7.7-.9-8-1.1-.5-.6 1.9-272.2 2.5-276 .3-2.3 1.8-3.9 6.7-7.2 3.4-2.3 6.5-4.2 7-4.2.4-.1.7 63.5.7 141.3zm205.7-132.7 4.8 6.8.3 38.5c.2 23.5 0 38.1-.6 37.5-.5-.6-3-3.6-5.6-6.8l-4.6-5.8v-38.4c0-21.2.2-38.5.4-38.5.3 0 2.7 3 5.3 6.7zM241.1 271.2c-.7 73.9-1.5 134.7-1.7 135.3-.2.5-.1-59.8.2-134 .3-74.3.8-135.4 1.1-135.8.3-.5.7-.6 1-.3.3.3 0 61-.6 134.8zM167 155.8v18.8l-11.2 6.6-11.3 6.6-.3-12.6c-.2-7 0-15.4.3-18.7l.6-6 10.7-6.7c5.9-3.6 10.8-6.6 11-6.7.1-.1.2 8.4.2 18.7zm70.5 115.4c-.3 73.3-.8 135.2-1.1 137.6l-.5 4.3-8.2-.3-8.2-.3-.3-131-.2-131 9.2-6.2c5.1-3.4 9.4-6.2 9.6-6.2.2-.1 0 59.9-.3 133.1zm165.4-127.5 3.2 4.3.9 95.2c.5 52.4.9 113.9 1 136.5V421h-2.5c-1.4 0-2.5-.6-2.5-1.3 0-.6-1.1-61.1-2.5-134.2-2.8-151.1-2.8-148.2-1.7-147 .5.6 2.3 2.9 4.1 5.2zm-26.4-1.7c.8 1.6 1.5 4 1.5 5.4 0 1.4.5 2.8 1 3.1.6.3.8 3 .6 5.8-.2 2.9-.4 13.4-.5 23.4L379 198h-9v-28.9c0-30.8-.2-29.3 4.2-30 .4 0 1.4 1.2 2.3 2.9zm-8.5 27.5V199h-7v-28.9c0-30.6-.1-29.9 4.8-30l2.2-.1v29.5zm-8 .4v28.8l-4.1.7c-2.3.4-4.3.5-4.4.4-.2-.2-.5-13.2-.7-29-.3-31.6-.8-29.4 6-29.7l3.2-.1v28.9zm-11-20.2c0 4.3.3 17.4.7 29l.6 21.3H343v-58h6v7.7zm-7.2 21.7c.2 21.7-.1 28.1-1 28.8-.7.4-3 .8-5.1.8h-3.9l.4-26.4.3-26.4 2.5-2.7c1.4-1.5 3.3-2.5 4.5-2.3 1.9.3 2 1 2.3 28.2zM485 197.9l-.1 36.6-5.8-6.5-5.8-6.4-.7-9.6c-.3-5.2-.6-22.8-.6-39v-29.5l6.5 9 6.5 8.9v36.5zm-69-36.8 7 9.1v251.5l-5.7-.5c-3.2-.2-6-.7-6.3-.9-.3-.3-.8-41.3-1.2-91.1-.4-49.9-.8-110.2-1-134-.2-23.7-.2-43.2-.1-43.2s3.4 4.1 7.3 9.1zm-274 10.1v18.3l-11.8 6.6-11.7 6.7-.3-14.7c-.4-22-.7-21.3 11.8-28.8 5.8-3.5 10.8-6.3 11.3-6.3.4 0 .7 8.2.7 18.2zm72.5 228.5-.7 12.3H195V165.3l9.8-6 9.7-6 .3 117.1c.2 64.4 0 122.6-.3 129.3zm281-224.7 5.7 7.5-.6 17.9c-.3 9.9-.6 25.4-.6 34.5l-.1 16.6-6.4-7-6.4-7-.1-36.5c0-31 .2-36.2 1.4-35 .7.8 3.9 4.9 7.1 9zm-379.7 11.2-.3 18.3-12 6.7c-6.6 3.7-12.3 6.8-12.7 6.8-.9 0-.8-29.2.1-33.4.5-2.4 2.6-4 12.1-9.7 6.3-3.7 11.8-6.8 12.3-6.8.4-.1.6 8.1.5 18.1zm74.2 104v121.3l-10-.3-10-.3V180.5l9.3-5.7c5-3.1 9.5-5.7 10-5.7.4-.1.7 54.5.7 121.1zM440 192c.7 1.5 3.6 229.8 2.9 230.4-.2.2-4 .1-8.5-.1l-8.1-.5-.6-11.2c-.4-6.1-.7-62.1-.7-124.5V172.7l7.1 8.9c3.9 4.9 7.4 9.6 7.9 10.4zM166.7 354.3c-.1 31.4-.2 5.7-.2-57.3s.1-88.7.2-57.2c.2 31.4.2 83 0 114.5zM87.3 220.1c-1.2 1.1-25.8 13.9-26.8 13.9s.2-34.1 1.2-35.1c.4-.4 6.4-4 13.3-7.8l12.5-7 .3 17.6c.1 9.7-.1 18-.5 18.4zm75.3 190.7c-.3.2-4.8.1-10-.3l-9.6-.7v-35.7c0-19.6.3-67.7.7-106.9l.6-71.3 9.1-5.4 9.1-5.5.3 112.7c.1 61.9 0 112.8-.2 113.1zm346.7-217.6 5.5 7.3.4 33.8c.2 18.5 0 33.6-.3 33.5-.4-.2-3.5-3.4-6.9-7.2l-6.3-7 .6-24c.4-13.1.7-28.4.7-33.8 0-5.4.2-9.8.4-9.8s2.9 3.3 5.9 7.2zm-58 12 5.5 6.8.6 17.2c.3 9.5.9 57.2 1.2 105.9l.7 88.6-5.9-.4c-3.3-.3-6.4-.6-7-.8-.7-.2-1.3-19.6-1.7-64.2-.4-35.1-1-86.1-1.3-113.3-.6-44.4-.5-49.3.9-48 .8.8 4 4.5 7 8.2zm-309.8 96c-.4 57.4-.8 105.3-1.1 106.5-.2 1.3-.9 2.3-1.5 2.3s-.9-34.3-.7-104.8c.3-87.1.5-105.2 1.7-106.5.7-1 1.5-1.7 1.8-1.7.2 0 .1 46.9-.2 104.2zM58 218.5V236l-13 6.5c-7.1 3.6-13.2 6.5-13.5 6.5-.8 0-.4-30.1.4-32.3.6-1.5 23-15.3 25.4-15.6.4-.1.7 7.8.7 17.4zm77.5 181.2-.7 10.3H117l.1-48.3c.1-26.5.5-71.4.8-99.7l.6-51.4 8.5-4.8 8.5-4.7.3 94.2c.2 51.8 0 98.8-.3 104.4zm387.9-188.5 5.6 7.1v65.2l-5.4-6-5.3-6-.6-15.5c-.8-17.5-.9-52-.3-52 .3 0 3 3.2 6 7.2zM115.2 322.5l-.7 87-2.7.2-2.8.2v-90.7c0-49.9.3-93.7.6-97.3.6-5.7 1-6.8 3.3-8.2l2.6-1.6.2 11.7c.2 6.4 0 50.8-.5 98.7zm356.1-41.4c.4 28.8 1 72.8 1.4 97.6l.6 45.3h-5.6c-4.4 0-5.7-.4-6.1-1.8-.2-.9-.8-47.8-1.1-104.2l-.7-102.5 5.4 6.6 5.5 6.7.6 52.3zm-364.5 41.1c-.2 47.6-.6 86.9-1 87.3-.3.4-4.3.3-8.7-.1l-8.1-.7v-29.1c0-16 .3-57.1.7-91.2l.6-62.1 8.1-4.4 8.1-4.4.3 9c.2 4.9.2 48 0 95.7zm430.7-93.5 5.5 6.7v62l-6-5.9-6-5.9v-31.8c0-17.5.2-31.8.5-31.8.2 0 2.9 3 6 6.7zm-449.8 49c-.4 27.3-.7 68-.7 90.5V409h-9v-80.8c0-44.5.3-84.2.6-88.3.6-7.3.8-7.6 4.3-9.7 2-1.1 4-2.1 4.5-2.2.6 0 .7 19.9.3 49.7zm281.2-1 .1 26.3h-7v-32.9c0-18.1-.3-34.2-.6-35.9-.6-2.9-.4-3.1 2.7-3.4l3.4-.3.6 10c.4 5.5.7 21.8.8 36.2zm8.1-37.6c0 2.1.5 4.1 1 4.4 1.1.7 1.4 32.2.3 48.8l-.6 10.7H371v-73.4l3 2.9c2.3 2.2 3 3.8 3 6.6zm-16.7 27.5c.4 19.6.5 36 .1 36.5-.3.5-2.5.9-5 .9H351v-73h8.7l.6 35.6zm-18.3 1.3v35.9l-2.2.6c-5.7 1.5-5.4 2.9-6.2-27.1-.4-18.5-.3-28 .4-28.7.5-.5 1-2.8 1-5.1 0-4 3.9-11.5 6-11.5.6 0 1 13.5 1 35.9zm8 .1v36h-7v-72h7v36zm135 66.8v90.3l-4.7-.3-4.8-.3-.6-42c-.4-23.1-.9-66.5-1.3-96.5l-.7-54.5 6 6.5 6 6.5.1 90.3zM75.8 346l-.3 62.5-7.7.3-7.8.3V242.5l7.8-4.2 7.7-4.1.3 24.6c.1 13.6.1 52.8 0 87.2zm479.6-66 .7 30.5-6.1-6-6-5.9v-61.7l5.3 6.3 5.4 6.3.7 30.5zM58 318.2c0 40.9-.3 78-.7 82.6l-.6 8.3-5.6-.3-5.6-.3-.3-79.2L45 250l5.7-2.9c3.2-1.7 6.1-3 6.6-3.1.4 0 .7 33.4.7 74.2zm441.6-5.2c-.3 28.3-.6 65.3-.6 82.2V426h-2.9c-1.6 0-4.3-.3-6-.6l-3.1-.7v-88.6l.1-88.6 6.5 7 6.6 7-.6 51.5zM42.4 257.2c.3 2.9.6 38.3.6 78.5V409H29.7l.6-65.8c.4-36.1.7-70.3.7-75.9V257l4.8-2.4c2.6-1.4 5-2.5 5.3-2.6.3 0 .9 2.4 1.3 5.2zm523.2 5.4 3.4 4.1-.2 27.8-.3 27.7-5.7-5.4-5.6-5.3-.6-30-.5-30 3 3.5c1.7 1.9 4.6 5.4 6.5 7.6zM28.3 337l-.8 71.5-7.2.3-7.3.3v-71.8l.1-71.8 7.7-3.6 7.7-3.6.3 3.6c.1 2-.1 35.8-.5 75.1zm483.7-6.4c.5 31.3 1.1 65.8 1.3 76.6l.4 19.8h-3.1c-1.7 0-3.6-.4-4.2-.8-.8-.5-1.3-23.7-1.8-80.2l-.7-79.5 3.6 3.6 3.6 3.6.9 56.9zm66.6-53 2.4 3.1-.2 26.2-.3 26.1-5.2-4.6-5.3-4.6v-28.1l.1-28.2 3 3.5c1.6 1.9 4.1 4.9 5.5 6.6zm-63.2 1.6c.6 2.7 2.5 147.1 1.9 147.7-1.2 1.5-1.6-6.6-2.4-56.1-.4-30.4-1-64-1.2-74.6-.1-10.5.1-19.2.5-19.2s1 1 1.2 2.2zm9.6 78.9v69.6l-2.4-.4-2.4-.5-.6-22.1c-.3-12.2-.8-44.9-1.2-72.7l-.6-50.5 3.6 3.4 3.6 3.5v69.7zm67.5-51.7c.3 7.8.5 19.4.3 25.8l-.3 11.7-5.2-4.6-5.3-4.5v-26.6l.1-26.7 4.8 5.4 4.9 5.5.7 14zM529 360.1c0 44.6-.3 67.9-1 67.9s-1-23.5-1-68.6c0-45.4.3-68.3 1-67.9.7.4 1 24.3 1 68.6zm8 4.1V428h-6V294.6l3 2.9 3 2.9v63.8zm62.8-63.2 5.2 5.9-.2 23.7-.3 23.7-5.2-4.9-5.2-4.9-.3-24.8c-.2-13.6-.1-24.7.2-24.7.3 0 2.9 2.7 5.8 6zm-56.1 66.9.6 61.3-2.4-.4-2.4-.3-.3-63-.2-63 2 2.1c2.1 2 2.1 3.2 2.7 63.3zm5.3 2.8c0 57.6 0 58.3-2 58.3s-2-.7-2-47.8c0-26.2-.3-53.6-.6-60.7l-.7-13 2.7 2.4 2.6 2.4v58.4zm66-31v22.4l-2.8-2c-5.8-4.1-5.7-3.6-6-29l-.2-23.6 4.5 4.8 4.5 4.9v22.5zM556.2 374c.1 30 0 54.6-.4 54.7-.5.2-1.7.3-2.8.3-2 0-2-.7-2-57.2v-57.3l2.4 2.5 2.4 2.5.4 54.5zm70.3-24.3c.4 12.1.4 21.3-.1 21.3s-2.9-1.7-5.4-3.9l-4.5-3.9-.3-22.3-.4-22.4 5 5 5 5 .7 21.2zm-65.1 27.5c.7 51.3.6 52.8-1.2 52.8-1.8 0-1.9-1.4-2.5-25.7-.4-14.1-.7-38.7-.7-54.7 0-28.5 0-29 1.9-27.1 1.8 1.9 1.9 5 2.5 54.7zm395.8-31.4c-.3 20.5-.3 20.8-2.8 23.7l-2.5 3 .7-20c.5-16.8.9-20.6 2.5-23.8 1.1-2 2-3.7 2.2-3.7.1 0 .1 9.3-.1 20.8zm-390.5-16.6c2 2.2 2.1 3.7 2.6 51.5l.6 49.3H564v-24.3c0-13.4-.3-36.6-.7-51.5-.4-17.7-.3-27.2.4-27.2.5 0 1.9 1 3 2.2zm408.1 4.5c-3.8 8.8-4.3 9.1-6.2 3.7-2.6-7.8-2.4-8.4 3.3-8.4h5l-2.1 4.7zM637 359.3v19.8l-4.5-3.1-4.5-3.1-.1-15.7c0-8.6-.2-18.4-.5-21.7l-.6-6 5.1 5 5.1 4.9v19.9zM984 341c0 7.3-.3 9-1.5 9s-1.5-1.4-1.5-6.5c0-5.4 1.4-11.5 2.7-11.5.1 0 .3 4 .3 9zm-410.6 42.2c.6 42.7.5 47.8-.9 47.8-1.3 0-1.5-2-1.5-13.8 0-7.5-.3-29.7-.6-49.2-.6-31.6-.5-35.3.9-34 1.2 1.3 1.6 8.7 2.1 49.2zm5.3-43 2.3 2.1V431h-5v-21.8c0-11.9-.3-32.8-.7-46.5-.3-13.6-.2-24.7.2-24.7.5 0 1.9 1 3.2 2.2zm371.1 36.1c-1.9 3.2-2.4-31.4-.6-35.8 1.1-2.6 1.3-.6 1.6 15.3.2 13.4-.1 18.8-1 20.5zM369 379.1v40l-3.2-.3-3.3-.3-.3-39.2c-.2-42.7-.6-39.8 5.1-40.2 1.6-.1 1.7 2.4 1.7 40zm4-35.6c.4.5 1.1 4.4 1.5 8.5.4 4.1 1.3 8.2 2.1 9.1 1.2 1.3 1.4 6.6 1.2 29.5l-.3 27.9-2.6.3c-2.5.3-2.6 0-3.2-5-.8-6.1-.7-76.3 0-73.3.3 1.1.9 2.4 1.3 3zm-30.7 22.2c.4 14.1.7 31.4.7 38.5V417H336.3l-.6-15.2c-1-21.5-.9-39.6.2-40.3.5-.3 1.3-3.4 1.6-7 .4-3.6 1.1-6.8 1.6-7.1.5-.3.9-2.1.9-4s.4-3.4.8-3.4c.5 0 1.2 11.5 1.5 25.7zm8-20c.3 3.2.6 20.8.7 39l.1 33.3h-7l-.3-38.3c-.2-21-.2-38.5 0-39 .2-.4 1.6-.7 3.1-.7 2.7 0 2.8.3 3.4 5.7zM361 379v39h-9v-78h9v39zm619-34c0 4.5-.2 5-2.5 5.6-1.4.4-2.8.4-3.1.1-.4-.4 4.7-10.6 5.4-10.7.1 0 .2 2.2.2 5zm-333 22.3c0 14.8-.3 18.7-1.2 18.1-.7-.4-2.8-1.9-4.5-3.2l-3.3-2.4v-38.9l4.5 3.8 4.4 3.8.1 18.8zm347.4 13.4c.5 25.8.4 28.5-.9 25.6-1.2-2.5-1.6-9.8-2-33.5-.4-26.7-.3-29.8.9-25.6.9 3.2 1.5 13.6 2 33.5zm-409.7 8.2c.6 40 .5 43.1-1 42.5-1.6-.6-1.7-4.5-1.7-44.2 0-30 .3-43.3 1-42.6.7.7 1.3 16.8 1.7 44.3zm-81.8-.7c.1 24.6-.2 37.8-.9 37.8s-1-14.2-.9-40.8c.1-22.4.5-39.4.9-37.7.4 1.6.8 20 .9 40.7zm442.1-5.8-2 2v-16.2c0-13.6.3-16.8 1.8-19.5 1.7-3.2 1.7-3 2 14.2.2 16.4.1 17.6-1.8 19.5zm21-31.7c0 .7-.4 1.3-1 1.3-.5 0-1-1.2-1-2.8 0-2.1.2-2.4 1-1.2.5.8 1 2.1 1 2.7zm-375.3.5 3.1 3.3.6 38.7.7 38.8H587v-34.3c-.1-18.8-.3-37.7-.6-42-.4-4.3-.2-7.7.3-7.7s2.3 1.5 4 3.2zm63 4 4.2 4.3.3 17.3c.2 9.4.2 17.2 0 17.2-.1 0-2.1-1.4-4.5-3.1-3.6-2.6-4.3-3.7-4.9-7.7-.9-6.7-.9-32.2 0-32.2.4 0 2.7 1.9 4.9 4.2zm286.8 33.1c-1.4 2-1.5.7-1.5-14.1 0-11.2.4-16.8 1.3-18.2 1-1.7 1.2.7 1.5 14 .2 13.1 0 16.5-1.3 18.3zm-335.7-25.1c.6.8 1.1 13.4 1.4 35.6l.3 34.2H603c-1.9 0-4-.4-4.6-.8-.8-.5-1.4-12.6-1.9-38.6l-.7-37.9 3.9 3.1c2.2 1.7 4.5 3.7 5.1 4.4zm393.7 29.3c.4 23.4.3 26.6-.9 24-1-2.2-1.5-10.6-1.9-31.5-.5-26-.4-28.1.9-24 1.1 3.4 1.6 11.4 1.9 31.5zm-334.8-28.3 3.2 3.3.7 16.4.7 16.4-3.2-1.9c-1.8-1-3.7-2.5-4.3-3.1-1.3-1.6-2.4-34.3-1.1-34.3.5 0 2.3 1.5 4 3.2zm272.1 29.6-2.3 3.7-.3-14.8c-.2-14-.1-15.1 2-18.5l2.3-3.7.3 14.8c.2 14 .1 15.1-2 18.5zm47.9-21.6c.3 8.3.3 8.3-1.3 4.8-2.1-4.5-2.8-9.2-2-12.6 1.3-4.9 2.9-.9 3.3 7.8zM973 372c5.2 14 5.3 14 2.4 14-2.3 0-2.4-.3-2.6-6.8l-.2-6.7-.3 6.7c-.3 4.6-.8 6.8-1.8 7.2-1.3.4-1.5-1.4-1.5-11.6 0-6.7.2-11.9.4-11.7.3.3 1.9 4.3 3.6 8.9zm6-7c0 1.1-.2 2-.4 2s-.6-.9-.9-2c-.3-1.1-.1-2 .4-2s.9.9.9 2zm-11.2 10.2c-.2 7.8-.7 11.3-1.5 11.6-1 .3-1.3-2.1-1.3-9.6 0-10.2.5-13.2 2.1-13.2.6 0 .8 4.8.7 11.2zm-360.1 28c-.1 7.3-.3 1.6-.3-12.7 0-14.3.2-20.3.3-13.3.2 7 .2 18.7 0 26zm5.5-33.5 2.6 2.8.4 30.5c.3 33.4.8 30.7-5.2 30.2-2-.2-2-.9-2-33.2 0-18.2.4-33 .8-33 .5 0 2 1.2 3.4 2.7zm60 3 3.8 3.7v14.3c0 7.9-.3 14.3-.6 14.3-.4 0-2.2-.9-4-2.1l-3.4-2.1v-11.2c0-6.2-.3-13.4-.6-16-.4-2.5-.3-4.6.2-4.6.4 0 2.5 1.7 4.6 3.7zM930 400.4l-2 2v-14c0-11.7.3-14.4 1.8-16.4 1.7-2.4 1.7-2.1 2 11.9.2 13.4.1 14.6-1.8 16.5zm-310.7 3.8c.3 16.4.2 29.8-.2 29.8-1.1 0-2.1-21.5-2.1-43.5 0-29 1.7-18.9 2.3 13.7zm383.9 2.3c.6 24.7.5 25.8-1.1 22.5-1.3-2.9-1.6-7.8-1.8-30-.1-22.8 0-25.9 1.1-22.5.9 2.6 1.5 13 1.8 30zM627 397.4c0 9.4.3 21.5.7 26.8l.6 9.8h-7l-.6-18.2c-.4-9.9-.7-23.2-.7-29.5v-11.4l3.5 2.7 3.5 2.6v17.2zm58-1.2V410l-3.5-1.7-3.5-1.7V376.9l3.5 2.8 3.5 2.8v13.7zm240 9.2-2 2v-13.3c0-11.4.3-13.7 1.8-15.4 1.6-1.8 1.7-1.4 2 11.4.2 12.2.1 13.4-1.8 15.3zm31.5 21.4c-.7 37.7-.8 38.3-2.8 38-1.9-.3-2-.9-1.8-40.2.2-39.4.3-40 2.4-43l2.2-3.1.3 5c.2 2.7.1 22.2-.3 43.3zM633.4 397c.3 6.9.6 18.2.6 25.2 0 12.8 0 12.8-2.3 12.8-2.4 0-2.4 0-3-17.3-.4-9.4-.7-21.6-.7-27v-9.8l2.4 1.8c2.1 1.6 2.4 2.7 3 14.3zm287.1 12.9c-1.3 1.4-1.5.2-1.5-11.5 0-9.1.4-13.4 1.3-14.3 1-1 1.3 1.3 1.5 11.5.2 10.4 0 13.1-1.3 14.3zm-230-22.8 3.5 3.1V415l-3.4-1.6c-3.1-1.5-3.4-2.1-4-7.7-.7-7-.8-21.7-.1-21.7.2 0 2 1.4 4 3.1zm317.3 31.4c0 20.6-.1 23.6-1.3 21-.9-2.1-1.5-11-1.9-29l-.6-26 1.9 5c1.7 4.4 1.9 7.8 1.9 29zm-371-7.7c.1 15.9-.1 24.2-.8 24.2-.6 0-1-7.5-1-21.4 0-11.7-.3-22.8-.7-24.6-.5-2.5-.3-3.2.8-2.8 1.1.4 1.4 5 1.7 24.6zm314.1 3.9c-.2 33.8-.8 49.3-2 49.3-.5 0-.9-16.3-.9-37.3 0-35.4.3-39.7 2.7-39.7.2 0 .3 12.5.2 27.7zm-34.4-.8c-1.3 1.4-1.5.3-1.5-11 0-8.7.4-12.9 1.3-13.8 1-1 1.3 1.2 1.5 11 .2 10 0 12.6-1.3 13.8zM643.1 392c3.5 2.3 3.7 2.7 4.3 9.9.3 4 .6 13.4.6 20.8V436h-2.7c-1.6 0-3.8-.3-5-.6l-2.3-.6v-23c0-12.6.3-22.8.8-22.6.4.1 2.3 1.4 4.3 2.8zm57.7 2.9c2 1.8 2.2 2.7 2.2 13.5V420l-4-2-4-2v-12.6c0-13.7-.1-13.5 5.8-8.5zM947 428.1c0 33.8-.1 36-1.7 35.7-1.7-.3-1.8-2.8-2.1-33.7-.2-28.7 0-33.7 1.3-35.8.9-1.2 1.8-2.3 2-2.3.3 0 .5 16.2.5 36.1zm-33-23.8c0 10.1-.2 11.6-2 13.2-2 1.8-2 1.7-2-9.4 0-10.4 1-15.1 3.2-15.1.5 0 .8 5.1.8 11.3zm-256.8-2.9c1.5 1.1 1.7 3.5 1.8 18 .1 9.2 0 17-.3 17.2-.2.3-2.3.2-4.6-.2l-4.1-.7v-38.8l2.8 1.6c1.5.9 3.5 2.2 4.4 2.9zm53.6 11.1c.1 5.8 0 10.5-.3 10.5s-1.9-.7-3.5-1.5l-3-1.6v-22.1l3.3 2.1 3.2 2 .3 10.6zm196.2 8.9-2 2v-10.8c0-9 .3-11.3 1.8-12.9 1.6-1.8 1.7-1.5 2 8.9.2 9.7.1 11-1.8 12.8zm35 9.1V463H937.7l.7-31.2c.6-28.2 1.2-33.8 3.2-33.8.2 0 .4 14.6.4 32.5zm29.4-26.9c0 2.1-.1 8.5-.2 14.1-.1 6.1-.6 10.3-1.2 10.3s-1-5.5-1-14.6c0-11.2.3-14.5 1.3-14.2.7.3 1.2 2.1 1.1 4.4zm5.6 9.9c0 13.8-.1 14.5-2 14.5s-2-.7-2-14.5.1-14.5 2-14.5 2 .7 2 14.5zm4.8-13.3c.8.8 1.2 5.5 1.2 14.5V428h-2.5c-2.4 0-2.5-.2-2.5-6.8 0-9.3 1.1-22.2 1.9-22.2.4 0 1.2.5 1.9 1.2zM968 414c0 11.8-.2 14-1.5 14-1.2 0-1.5-1.8-1.5-10.3 0-9 1.3-17.7 2.5-17.7.3 0 .5 6.3.5 14zm45.9 20.5v23l-1.8-4.5c-1.5-3.7-2-8.6-2.5-29l-.6-24.5 2.5 6c2.3 5.8 2.4 6.9 2.4 29zm-111.1-9.8c-1.1 1.4-1.3 1.3-1.9-.8-.4-1.3-.7-5.7-.8-9.8-.1-5.8.3-7.9 1.7-9.4 1.6-1.8 1.7-1.5 2 8.3.2 7.1-.1 10.7-1 11.7zm34.2 8.4c0 28.1-.1 30-1.7 29.7-1.7-.3-1.8-2.6-2.1-28.2-.2-24.9-.1-28.1 1.4-29.8 1-1 1.9-1.8 2.1-1.8.1 0 .3 13.5.3 30.1zm-272.4-27 3.4 2.1v9.1c0 5.1.3 11.6.6 14.4l.7 5.3h-8l-.7-5.3c-.8-6.8-.8-27.7 0-27.7.4 0 2.2.9 4 2.1zm51.4-.1c2.5 1.8 2.8 2.6 3.5 11.1.3 5 .5 9.3.2 9.5-.2.2-1.8-.1-3.5-.7l-3.2-1.1-.1-7.6c-.1-4.3-.3-8.9-.5-10.5-.3-3.2 0-3.3 3.6-.7zm-476.3 5.2c-.3.7-.5.2-.5-1.2s.2-1.9.5-1.3c.2.7.2 1.9 0 2.5zm658.1 16.9c-1.9 1.2-2.4-16.6-.6-18.9 1.1-1.3 1.3.1 1.6 8.3.2 7.2-.1 10-1 10.6zM932 435c0 26.3 0 27-2 27-1.9 0-2-.7-2-24.8 0-20.8.2-25.1 1.6-27 .8-1.2 1.7-2.2 2-2.2.2 0 .4 12.1.4 27zm-255-9.3V438h-7v-4.8c0-2.6-.3-9.1-.7-14.6l-.6-9.8 4.1 2.3 4.2 2.4v12.2zm50.1-10.9c.5 1.3.9 5.4.9 9.2v7l-2.7-1.2c-1.6-.7-3.1-1.4-3.4-1.7-.4-.3-.9-4.8-1.2-9.8l-.4-9.3 2.9 1.8c1.7.9 3.4 2.7 3.9 4zm167.5 14.9c-.3.7-1 1.3-1.6 1.3-1.5 0-1.3-17.7.3-18.3.9-.3 1.3 1.8 1.5 7.6.2 4.4.1 8.6-.2 9.4zm32.4 7.7v24.3l-2.7-.5-2.6-.5.6-22c.5-18.7.9-22.2 2.3-23.8.9-1.1 1.9-1.9 2.1-1.9.1 0 .3 11 .3 24.4zm-242.2-18.5c1.5 1.8 1.7 18.7.2 19.6-.6.4-2.4.4-4 0l-3-.7V414l2.8 1.7c1.5.9 3.3 2.3 4 3.2zm52.7 7.4c.4 3.7.5 7.1.2 7.4-.4.3-2.3-.1-4.4-1l-3.8-1.5-.3-8.1-.3-8.2 4 2.3c3.8 2.2 4 2.4 4.6 9.1zm153 1.5c-.5 3.7-1.2 5.5-2.6 6.2-1.8 1-1.9.7-1.9-6.7 0-6.6.3-8 2.3-10.1l2.2-2.4.3 3.9c.2 2.1.1 6.2-.3 9.1zm128.4 19.7v22l-1.9-4.5c-1.7-4-1.9-7.2-1.9-27v-22.5l1.9 5c1.8 4.4 2 7.5 1.9 27zM694 427.3c0 2.3.3 5.9.6 7.9l.7 3.8H687v-19.9l3.5 2c3.1 1.9 3.5 2.6 3.5 6.2zM921 440c0 13.3-.4 21-1 21s-1-7.4-1-20.3c0-17.9.3-21.7 1.7-21.7.2 0 .3 9.4.3 21zm-37.2-3.9c-2.5 1.6-2.8.9-2.8-5.8 0-4.9.5-7.1 1.8-8.6 1.6-1.9 1.7-1.6 2 5.9.2 5.5-.1 8-1 8.5zm-141.7-13.4c2.7 1.6 2.9 2.1 2.9 8v6.2l-2.9-1c-2.8-1-3-1.3-3.3-8-.2-3.8-.1-6.9 0-6.9.2 0 1.7.8 3.3 1.7zM918 441c0 16.2-.2 19-1.5 19s-1.5-2.7-1.5-18.3c0-10.1.3-18.7.7-19 1.9-2 2.3.9 2.3 18.3zm78.1 9c.3 11.3.5 20.7.3 20.9-.2.2-1 .1-1.9-.2-1.2-.5-1.5-2.9-1.5-14.4 0-7.6-.2-18.3-.5-23.8-.5-10-.5-10 1.2-6.5 1.3 2.8 1.8 7.7 2.4 24zm-299.2-17.2c-.1 9.1-.6 8.5-1.2-1.5-.2-4 0-7 .4-6.7.5.3.9 4 .8 8.2zm181.4 6c-1.7 1.2-1.8.8-2.1-5.5-.2-5.6 0-7 1.5-8.1 1.7-1.2 1.8-.8 2.1 5.5.2 5.6 0 7-1.5 8.1zM703 433.7c0 6.1-.1 6.3-2.5 6.3s-2.5-.2-2.5-7.5V425l2.5 1.2c2.3 1 2.5 1.7 2.5 7.5zm49-.2v5.4l-3-1c-2.9-1.1-3-1.3-3-7v-6l3 1.6c2.8 1.4 3 2 3 7zm162 9.1c0 16.2-.1 17.5-1.7 17.2-1.6-.3-1.8-2-2.1-15.7-.2-13.3 0-15.6 1.4-17.2 1-1.1 1.9-1.9 2.1-1.9.1 0 .3 7.9.3 17.6zm-40.6-1.9c-3 2.2-3.4 1.5-3.4-4.6 0-5 .3-6.1 2.3-7.4 2.2-1.5 2.2-1.4 2.5 4.6.2 4.9 0 6.4-1.4 7.4zm-162.6-4.9c.3 5.5 0 5.8-4.5 4.6-2.1-.6-2.3-1.3-2.3-6.5V428l3.3 1.3c3 1.2 3.2 1.7 3.5 6.5zm48.2.2c0 3.2-.4 4-1.8 4-2.9 0-4.2-2.1-4.2-6.7v-4.4l3 1.6c2.6 1.3 3 2.1 3 5.5zm150 8c0 14.3-.1 15-2 15s-2-.7-2-14c0-12.2.2-14 1.8-14.9.9-.6 1.8-1.1 2-1.1.1 0 .2 6.7.2 15zm114.8 10.7c.3 17.9.3 18.3-1.7 18.3-2.1 0-2.1-.4-2-21.8.1-21 .1-21.6 1.7-18.2 1.3 2.8 1.8 7.3 2 21.7zM869 437c0 3.3-.4 6-1 6-1.1 0-1.4-10.3-.3-11.3 1.2-1.2 1.3-.8 1.3 5.3zm-149.2 1.1c.3 3.5.3 3.5-3.3 3.1-3.4-.4-3.5-.5-3.5-4.8V432l3.3 1.3c2.6 1.1 3.3 1.9 3.5 4.8zm43.3-4.1c2.5 1.4 2.8 8.6.3 7.6-.9-.3-2-.6-2.5-.6s-.9-1.8-.9-4c0-4.3.2-4.5 3.1-3zm102.7 4.2c-.3 4.6-.6 5.3-2.5 5.6-2.1.3-2.3-.1-2.3-3.9 0-2.8.6-4.6 1.8-5.5 2.9-2.2 3.3-1.6 3 3.8zM904 446c0 10.9-.2 13-1.5 13s-1.5-2-1.5-12.3c0-6.8.3-12.7.7-13 1.9-1.9 2.3.4 2.3 12.3zm-132-5.5c0 2.5-1.3 3.1-4.4 1.9-1-.4-1.6-1.8-1.6-4v-3.5l3 1.6c2.1 1.1 3 2.3 3 4zm-46.6-3.5c1.6.6 2.6 1.7 2.6 3 0 1.6-.7 2-3.5 2-3.2 0-3.5-.2-3.5-3 0-3.3.5-3.5 4.4-2zm133.4 8.1c-2.3 1.5-2.8 1-2.8-3.1 0-2.7.5-4.2 1.8-4.9 1.5-.8 1.7-.5 2 3.1.2 2.6-.2 4.4-1 4.9zm41 2.2c.3 10.2.2 10.7-1.8 10.7-1.9 0-2-.6-2-10.3 0-5.7.3-10.7.7-11.1 2-2 2.8.9 3.1 10.7zM1000 457c0 21.2-1.8 18.3-2.5-4-.5-15.8-.4-17.2.9-14.5 1.1 2.2 1.5 7 1.6 18.5zm-105-8.9c0 9-.2 10-1.7 9.7-2.6-.5-3-16.7-.5-18.6.9-.6 1.7-1.2 1.9-1.2.2 0 .3 4.5.3 10.1zM736.5 441l5 1.8-4.7.1c-5.5.1-7.8-.6-7.8-2.5 0-1.8 1.3-1.7 7.5.6zm47 1.5 9 3.5-6.3-.6c-10.7-1.1-12.7-1.7-13-4.2-.2-1.2 0-2.2.5-2.2.4 0 4.9 1.6 9.8 3.5zm71.5-.1c0 2.5-.5 3.5-2 3.9-1.7.4-2 0-2-2.8 0-3 .9-4.2 3.3-4.4.4-.1.7 1.4.7 3.3zm-5 1.6c0 2.5-.4 3-2.5 3-3 0-3.5-3.3-.7-4.9 2.7-1.6 3.2-1.3 3.2 1.9zm40 5c0 7.3-.2 8-2 8s-2-.7-2-7c0-5.5.3-7.1 1.8-7.9.9-.6 1.8-1.1 2-1.1.1 0 .2 3.6.2 8zm-46.4-2.3c-1.1 1.1-1.9-.6-1.1-2.4.8-1.7.8-1.7 1.2 0 .3 1 .2 2.1-.1 2.4zM971 455c0 7.3-.4 12-1 12s-1-4.7-1-12 .4-12 1-12 1 4.7 1 12zm6 .6c0 12.4 0 12.5-2.2 12.2-2.2-.3-2.3-.7-2.6-12.6l-.3-12.2h5.1v12.6zm4.1-11.9c0 .5.3 1.7.6 2.8 1.1 4.4 1.5 22.5.5 22.5-3.9 0-4.2-.9-4.2-13.6 0-10.4.2-12.4 1.5-12.4.8 0 1.5.3 1.6.7zm47.8 18.5c.1 11.2 0 11.8-1.9 11.8s-2-.6-1.9-15.8v-15.7l1.9 4c1.5 3.1 1.9 6.5 1.9 15.7zM885 450.6c0 5.7-.2 6.5-1.7 6.2-1.4-.2-1.9-1.5-2.1-5.2-.4-5.7.2-7.6 2.3-7.6 1.2 0 1.5 1.3 1.5 6.6zm-44-4.6c0 .5-1.7 1-3.7.9-3.4-.1-3.5-.2-1.3-.9 3.6-1.1 5-1.1 5 0zm163.2 15.3c.5 10 .4 10.7-1.3 10.7-1.8 0-1.9-.9-1.9-13.8.1-12.2.2-13.4 1.4-10.7.7 1.7 1.5 7.9 1.8 13.8zM880 451c0 4.3-.3 5-2 5s-2-.7-2-4.4c0-4 .7-5.3 3.3-5.5.4-.1.7 2.1.7 4.9zm88 5.6c0 6.7-.4 10.3-1 9.9-1.6-1-1-20.5.6-20.5.2 0 .4 4.8.4 10.6zm-93-5.3c0 4-.5 4.6-3.1 4-2.2-.6-2.7-5.8-.6-6.6 2.9-1.2 3.7-.6 3.7 2.6zm-507-1.7c0 1.1-11 14.4-11.8 14.3-.8 0-12.2-13.4-12.2-14.3 0-.3 5.4-.6 12-.6s12 .3 12 .6zm501 2.9c0 1.4-.4 2.5-1 2.5-.5 0-1-1.1-1-2.5s.5-2.5 1-2.5c.6 0 1 1.1 1 2.5zm-3 .5c0 2.1-1.6 2.6-3.9 1.1-1.8-1.1-.5-3.1 2-3.1 1.2 0 1.9.7 1.9 2zm-6 0c0 .5-1.7 1-3.7.9-3.1 0-3.4-.2-1.8-.9 2.8-1.2 5.5-1.2 5.5 0zm-483.2 26.1-.3 9.2-7.3-8.6-7.4-8.7 7.4-9.2 7.3-9.2.3 8.6c.1 4.8.1 12.8 0 17.9zM344 462.5l7.2 8.6-4.1 5.2c-2.3 2.9-5.4 6.8-7.1 8.7l-2.9 3.5-.1-12c0-6.6-.3-14.4-.6-17.3-.4-2.8-.4-5.2-.1-5.2.2 0 3.7 3.8 7.7 8.5zm665 5.7c0 3.6-.4 4.8-1.5 4.8-1.2 0-1.5-1.4-1.5-6.3 0-3.4-.3-7.3-.5-8.7-.4-1.7.1-1.2 1.5 1.5 1.1 2.3 2 6.1 2 8.7zm24-.5c0 5.8-.3 7.3-1.5 7.3s-1.5-1.7-1.5-9.8c.1-8.9.2-9.5 1.5-7.2.9 1.5 1.4 5.4 1.5 9.7zm-20.4 6.1c-1.2 1.1-2.6-1.2-2.6-4.1l.1-3.2 1.5 3.4c.8 1.9 1.2 3.6 1 3.9zm-647.1 13.9c4.4 5.3 8.2 10 8.3 10.4.2.5-7.3.9-16.7.9-9.4 0-17.1-.3-17.1-.6 0-.9 16.1-20.4 16.8-20.3.4 0 4.3 4.3 8.7 9.6zm612.9-4.9c.6 1-2.1 5.2-3.4 5.2-.5 0-1.8-1.4-3-3l-2.1-3h4c2.2 0 4.2.4 4.5.8zm-8.1 4.7 2.8 3.4-2.8 3.7-2.8 3.8-.7-4.5c-.9-6.1-.9-9.9 0-9.8.4 0 2 1.6 3.5 3.4zm12.7 3.7v6.3l-3.1-3.2-3.2-3.1 2.4-3.1c1.3-1.6 2.7-3 3.2-3 .4-.1.7 2.7.7 6.1zm-4.2 6.6 2.5 3.2h-12.4l2.8-3.5c1.5-1.9 3.2-3.4 3.7-3.2.5.2 2 1.7 3.4 3.5zm1.2 6.9c0 .5-1.3 2.3-2.8 4.2l-2.8 3.3-3.3-4.1-3.3-4.1h6.1c3.4 0 6.1.3 6.1.7zm-614.6 12c-3.7 5.4-7.5 10.6-8.5 11.7-1.7 1.8-1.8 1.8-4.7-1.5-1.6-1.9-5.7-6.6-9-10.4-3.4-3.9-6.2-7.6-6.2-8.3 0-.9 4.2-1.2 17.6-1.2h17.5l-6.7 9.7zm617.1 3.1c-.3.3-1.7-.6-3.2-2l-2.6-2.7 2.9-4.3 2.9-4.3.3 6.4c.2 3.5 0 6.6-.3 6.9zm-12.4-.8-3.1 4.3v-14.8l3.1 3.1 3.1 3.1-3.1 4.3zm-593.2 10.2c0 7.9-.3 16.6-.6 19.4l-.6 5.1-7.3-8.2-7.4-8.3 7.7-11.1c4.3-6.1 7.9-11.1 8.1-11.1.1 0 .2 6.4.1 14.2zm601.7-8 2.7 3.3-3.2.3c-1.7.2-4.3.2-5.6 0l-2.5-.3 2.2-3.2c1.3-1.8 2.6-3.3 3-3.3.3 0 1.9 1.5 3.4 3.2zm-633.9 25.2-6.2 9-.2-3.9c-.2-2.2-.4-9.6-.5-16.4l-.3-12.3 6.7 7.3 6.6 7.3-6.1 9zm22.2 9.6 9.1 10.5-17.1.3c-9.5.1-17.4 0-17.6-.2-.3-.3 3-5.5 7.3-11.6 4.2-6.1 8.1-10.7 8.5-10.3.4.4 4.8 5.5 9.8 11.3z" fill="#c0362c"/></svg>