<svg xmlns="http://www.w3.org/2000/svg" width="1314" height="786.141" xml:space="preserve"><path fill="url(#SVGID_1_)" d="M-8.275-4.274h1330.551v794.689H-8.275z"/><path fill="#5f93b2" d="M1419.826 599.039v-3.622h-10.891v-8.325h-20.329v-44.896h-7.986V536.4h-26.864v-7.964h-56.63v-80.018h-2.18s-1.452 3.619-5.444 2.896v-3.619h-2.541s-26.863 18.827-29.769 22.81c0 0-.724-5.792-9.438-6.517v2.534h-1.815v-2.896s-16.336 0-35.574 14.481v3.983h-2.542s-11.255-14.12-33.761-16.654v4.345h-1.814l-1.453-4.345s-7.986-2.175-10.526 8.325v26.327h-13.433v-99.484h-15.609v-3.257h-55.917V500.09h-57.103V371.526h-67.885v24.982h-11.254v-70.241l-6.684-3.683h-28.53v18.887l-19.968 30.052h-21.779v-7.604h-1.451v-8.688h-1.453v-3.984h-1.453v4.345h-2.179v8.693h-1.815v6.514h-21.054V423.3l-10.166-2.533-15.608 8.324v-6.877h-5.083v-1.812h-21.417v-53.945h-12.347v-1.812h-6.171v-2.174h-2.54v1.813h-5.81v2.172h-18.149v23.171h-20.357v32.918h2.063v153.75h-5.501v6.857H576.852V471.464c-.225 1.265-.455 2.56-.688 3.911v-69.661h2.063v-.685h28.781c-3.635-3.366-6.249-4.745-6.249-4.745-25.047-10.14-31.945-1.45-31.945-1.45v51.775h-6.171v-2.896h-38.118v3.258h-5.807v-12.674h-6.897v-4.345h-13.793v-28.24h-25.411v-23.171h-18.151v-2.173h-5.811v-1.812h-2.54v2.174h-6.169v1.811h-12.347v53.945h-21.417v1.811H401.1v6.879l-15.609-8.325-10.167 2.533v-48.881H268.958v22.091h-11.254v-24.982h-67.886v70.136h-2.82v80.145H83.862V416.217h-7.064v3.258h-15.61v38.273H47.757v-26.327c-2.542-10.501-10.527-8.325-10.527-8.325l-1.455 4.346h-1.814v-4.346C11.458 425.629.2 439.75.2 439.75h-2.541v-3.983a85.598 85.598 0 0 0-3.946-2.796v166.068h1426.113zM81.114 474.292h-5.502v-17.146h5.502v17.146z"/><path fill="url(#SVGID_2_)" d="M280.604 616.545v-164.02h15.653v-26.09h15.762v-21.571a2.884 2.884 0 0 1 2.881-2.881c.324 0 .656.062.988.183l.207.076 18.725 5.018v-65.366h17.036l1.431-2.566.828-1.428.033-1.406v-6.557h8.199l1.107-.596a25.468 25.468 0 0 1 24.04 0l1.109.596h12.538l31.823 8.526v6.778l19.328 5.179v52.328l11.992 3.214c2.146.574 4.176 3.084 4.176 5.163v41.791h16.703V590.64h14.554V420.123h19.723V252.266h9.498v-7.33h.309v-14.104h9.498v-7.331h.309v-14.102h9.498v-7.33h9.498v-7.33h9.5v-7.326h3.998v7.326h9.498v7.33h9.498v7.33h9.498v20.723l9.518.751v141.856h15.383v51.211h8.715v53.391h25.906l13.98-133.086v-88.496l9.382-.829 11.255-107.136h2.198l12.047 106.881 12.249 1.084v82.03h50.461l22.396 6.002v2.897h71.561l22.035 5.904v17.554h28.762l22.033 5.903v59.885h19.539v-25.059h13.41V307.522h11.682v-36.109h6.188v-19.379h72.947l31.82 8.527v17.718l6.191 1.66v32.979l11.682 3.13v115.519h10.414v47.942h16.264V208.38h25.668v-6.712h24.195l25.049 6.712h.621l31.82 8.526v11.985l8.373 2.243V590.64h90.047l27.503 25.905H280.604z"/><path fill="#244868" d="M22.241 583.024v3.41l-57.259.2-.21 34.911h1418.881l-38.119-35.905h-86.748V227.299l-8.373-2.243V213.07l-36.162-9.689h-.621l-25.049-6.712h-29.854v6.712h-25.668v271.13h-6.264v-47.942h-10.414V312.213l-11.682-3.13v-32.979l-6.191-1.659v-17.719l-36.162-9.69H983.74v19.379h-6.188v36.109H965.87v103.344h-13.41v25.059h-9.539v-58.722l-26.375-7.066h-24.42v-16.391l-26.377-7.067H798.53v-1.734l-26.738-7.165h-46.119v-81.607l-12.738-1.127-12.09-107.261h-11.168l-11.295 107.518-9.84.87v92.812L655.06 472.335h-16.404v-53.391h-8.715V367.73h-15.383V204.075l-9.443-.77v-6.188l-9.445-.769v-6.186l-9.443-.77v-6.185l-9.443-.793v7.262h9.443v7.265h9.443v7.265h9.445v21.3l-.074-.006v-21.1h-9.498v-7.33h-9.498v-7.33h-9.498v-7.326h-13.998v7.326h-9.5v7.33h-9.498v7.33h-9.498v14.102h-.309v7.331h-9.499v14.104h-.308v7.33h-9.499v167.857h-19.722v170.517h-4.554V447.917h-16.704v-36.791c0-4.352-3.528-8.827-7.881-9.993l-8.287-2.221v-52.328l-19.328-5.179v-6.778l-36.164-9.689H389.86c-4.284-2.303-9.182-3.611-14.386-3.611s-10.103 1.309-14.387 3.611h-11.939v11.557c-.077.133-.155.266-.23.4h-19.099v63.85l-12.215-3.273a7.843 7.843 0 0 0-2.704-.486 7.881 7.881 0 0 0-7.881 7.881v16.571h-15.763v26.09h-15.762v62.639c-18.691-13.106-32.228-34.863-45.267-56.589v-6.619h-4.257v2.961h-6.107v-2.961h-4.257v3.98c-21.142 35.285-43.083 71.607-85.871 71.607-42.02 0-63.935-35.032-84.731-69.708v-5.88h-4.257v2.961H34.64v-2.961h-4.257v4.721c-11.928 19.904-24.157 40.051-40.277 53.75v2.026A96.122 96.122 0 0 0-3 501.184a114.53 114.53 0 0 0 3.179-3.334v39.819h-4.415v1.266h1.882l-1.785 1.675-.098-.091v1.92l.098-.092 1.427 1.339h-1.524v1.266h3.011c.095.022.19.022.285 0h5.734a.653.653 0 0 0 .285 0h5.827a.624.624 0 0 0 .285 0h5.733c.095.022.19.022.285 0h5.827c.095.022.19.022.285 0h1.587v38.074h-2.667zm-57.47 38.522h1419.165l-38.119-35.905h-87.031m-10.208-353.237 1.834.491 3.451.925v6.622l-3.451-.925-1.834-.491v-6.622zm0 12.298 1.834.491 3.451.925v6.623l-3.451-.926-1.834-.492v-6.621zm0 12.298 1.834.491 3.451.925v6.622l-3.451-.924-1.834-.491V257zm0 12.296 1.834.492 3.451.925v6.623l-3.451-.925-1.834-.491v-6.624zm0 12.299 1.834.491 3.451.925v6.622l-3.451-.925-1.834-.491v-6.622zm0 12.298 1.834.492 3.451.926v6.621l-3.451-.926-1.834-.492v-6.621zm0 12.296 1.834.491 3.451.925v6.622l-3.451-.924-1.834-.491v-6.623zm0 12.3 1.834.491 3.451.924v6.621l-3.451-.924-1.834-.491v-6.621zm0 12.296 1.834.492 3.451.924v6.623l-3.451-.924-1.834-.492v-6.623zm0 12.297 1.834.492 3.451.925v6.623l-3.451-.925-1.834-.492v-6.623zm0 12.298 1.834.491 3.451.925v6.622l-3.451-.924-1.834-.492v-6.622zm0 12.298 1.834.492 3.451.925v6.62l-3.451-.924-1.834-.492v-6.621zm0 12.407 1.834.491 3.451.925v6.622l-3.451-.924-1.834-.492v-6.622zm0 12.298 1.834.492 3.451.924v6.622l-3.451-.925-1.834-.492v-6.621zm0 12.298 1.834.491 3.451.925v6.621l-3.451-.926-1.834-.492v-6.619zm0 12.296 1.834.492 3.451.925v6.622l-3.451-.924-1.834-.491v-6.624zm0 12.296 1.834.492 3.451.924v6.625l-3.451-.926-1.834-.492v-6.623zm0 12.3 1.834.491 3.451.925v6.621l-3.451-.925-1.834-.491v-6.621zm0 12.298 1.834.491 3.451.923v6.623l-3.451-.926-1.834-.492v-6.619zm0 12.297 1.834.492 3.451.924v6.623l-3.451-.924-1.834-.492v-6.623zm0 12.299 1.834.492 3.451.925v6.621l-3.451-.925-1.834-.491v-6.622zm0 12.297 1.834.492 3.451.926v6.621l-3.451-.926-1.834-.492v-6.621zm0 12.299 1.834.492 3.451.924v6.621l-3.451-.924-1.834-.492v-6.621zm0 12.295 1.834.491 3.451.925v6.623l-3.451-.923-1.834-.491v-6.625zm0 12.298 1.834.492 3.451.924v6.625l-3.451-.926-1.834-.492v-6.623zm0 12.299 1.834.492 3.451.924v6.622l-3.451-.925-1.834-.492v-6.621zm0 12.298 1.834.491 3.451.925v6.621l-3.451-.925-1.834-.492v-6.62zm0 12.405 1.834.492 3.451.926v6.622l-3.451-.926-1.834-.492v-6.622zm0 12.298 5.285 1.416v6.622l-5.285-1.416v-6.622zm-9.82-347.183 5.287 1.417v6.621l-5.287-1.416v-6.622zm0 12.298 5.287 1.416v6.622l-5.287-1.415v-6.623zm0 12.298 5.287 1.416v6.623l-5.287-1.418v-6.621zm0 12.297 5.287 1.416v6.624l-5.287-1.417v-6.623zm0 12.298 5.287 1.416v6.623l-5.287-1.417v-6.622zm0 12.298 5.287 1.416v6.621l-5.287-1.415v-6.622zm0 12.298 5.287 1.416v6.621l-5.287-1.415v-6.622zm0 12.296 5.287 1.418v6.62l-5.287-1.416v-6.622zm0 12.298 5.287 1.416v6.623l-5.287-1.417v-6.622zm0 12.298 5.287 1.416v6.623l-5.287-1.416v-6.623zm0 24.595 5.287 1.416v6.622l-5.287-1.417v-6.621zm0 12.406 5.287 1.418v6.621l-5.287-1.416v-6.623zm0 12.299 5.287 1.416v6.622l-5.287-1.417v-6.621zm0 12.298 5.287 1.416v6.62l-5.287-1.416v-6.62zm0 12.297 5.287 1.416v6.623l-5.287-1.417v-6.622zm0 12.297 5.287 1.416v6.623l-5.287-1.416v-6.623zm0 12.297 5.287 1.416v6.621l-5.287-1.416v-6.621zm0 12.299 5.287 1.416v6.62l-5.287-1.417v-6.619zm0 24.597 5.287 1.415v6.623l-5.287-1.417v-6.621zm0 12.296 5.287 1.416v6.623l-5.287-1.416v-6.623zm0 12.299 5.287 1.416v6.622l-5.287-1.418v-6.62zm0 12.297 5.287 1.416v6.622l-5.287-1.417v-6.621zm0 12.298 5.287 1.413v6.624l-5.287-1.416v-6.621zm0 12.296 5.287 1.416v6.623l-5.287-1.416v-6.623zm0 12.299 5.287 1.416v6.62l-5.287-1.414v-6.622zm0 12.406 5.287 1.416v6.621l-5.287-1.416v-6.621zm0 12.298 5.182 1.388.105.028v6.623l-5.287-1.416v-6.623zm-9.817-347.182 5.285 1.416v6.621l-5.285-1.416v-6.621zm0 12.296 5.285 1.417v6.622l-5.285-1.417v-6.622zm0 12.297 5.285 1.417v6.623l-5.285-1.417v-6.623zm0 12.297 5.285 1.416v6.625l-5.285-1.417v-6.624zm0 12.3 5.285 1.417v6.62l-5.285-1.416v-6.621zm0 12.297 5.285 1.417v6.621l-5.285-1.416v-6.622zm0 12.298 5.285 1.416v6.622l-5.285-1.417v-6.621zm0 12.298 5.285 1.417v6.62l-5.285-1.416v-6.621zm0 12.296 5.285 1.417v6.622l-5.285-1.416v-6.623zm0 12.297 5.285 1.417v6.623l-5.285-1.417v-6.623zm0 12.299 5.285 1.416v6.622l-5.285-1.417v-6.621zm0 12.298 5.285 1.416v6.621l-5.285-1.417v-6.62zm0 12.405 5.285 1.418v6.621l-5.285-1.417v-6.622zm0 12.3 5.285 1.416v6.62l-5.285-1.415v-6.621zm0 12.296 5.285 1.418v6.619l-5.285-1.416v-6.621zm0 12.298 5.285 1.416v6.623l-5.285-1.417v-6.622zm0 12.297 5.285 1.416v6.623l-5.285-1.415v-6.624zm0 12.3 5.285 1.414v6.623l-5.285-1.416v-6.621zm0 12.294 5.285 1.418v6.62l-5.285-1.416v-6.622zm0 12.3 5.285 1.416v6.621l-5.285-1.416v-6.621zm0 12.298 5.285 1.418v6.621l-5.285-1.418v-6.621zm0 12.299 5.285 1.414v6.622l-5.285-1.416v-6.62zm0 24.594 5.285 1.416v6.623l-5.285-1.416v-6.623zm0 12.297 5.285 1.417v6.623l-5.285-1.417v-6.623zm0 12.299 5.285 1.416v6.621l-5.285-1.416v-6.621zm0 12.296 5.285 1.418v6.619l-5.285-1.416v-6.621zm0 12.407 5.285 1.416v6.622l-5.285-1.416v-6.622zm0 12.298 5.285 1.416v6.621l-5.285-1.416v-6.621zm-64.855 4.544h-6.621v-6.622h6.621v6.622zm0-12.298h-6.621v-6.623h6.621v6.623zm0-24.705h-6.621v-6.619h6.621v6.619zm0-12.296h-6.621v-6.623h6.621v6.623zm0-12.297h-6.621v-6.623h6.621v6.623zm0-12.297h-6.621v-6.623h6.621v6.623zm0-12.3h-6.621v-6.621h6.621v6.621zm0-12.298h-6.621v-6.619h6.621v6.619zm0-12.297h-6.621v-6.621h6.621v6.621zm0-12.299h-6.621v-6.622h6.621v6.622zm0-12.297h-6.621v-6.623h6.621v6.623zm0-12.296h-6.621v-6.624h6.621v6.624zm0-12.298h-6.621v-6.623h6.621v6.623zm0-12.299h-6.621v-6.621h6.621v6.621zm0-12.297h-6.621v-6.622h6.621v6.622zm0-12.297h-6.621v-6.623h6.621v6.623zm0-12.408h-6.621v-6.621h6.621v6.621zm0-12.297h-6.621v-6.622h6.621v6.622zm0-12.297h-6.621v-6.624h6.621v6.624zm0-12.298h-6.621v-6.622h6.621v6.622zm0-12.297h-6.621v-6.622h6.621v6.622zm0-12.298h-6.621v-6.621h6.621v6.621zm0-12.298h-6.621v-6.621h6.621v6.621zm0-12.297h-6.621v-6.622h6.621v6.622zm0-12.297h-6.621v-6.624h6.621v6.624zm42.572-43.516h6.621v6.622h-6.621v-6.622zm0 12.297h6.621v6.622h-6.621v-6.622zm0 12.297h6.621v6.623h-6.621v-6.623zm0 12.298h6.621v6.624h-6.621v-6.624zm0 12.299h6.621v6.622h-6.621v-6.622zm0 12.298h6.621v6.621h-6.621v-6.621zm0 12.298h6.621v6.621h-6.621v-6.621zm0 12.296h6.621v6.622h-6.621v-6.622zm0 12.298h6.621v6.622h-6.621v-6.622zm0 12.296h6.621v6.624h-6.621v-6.624zm0 12.299h6.621v6.622h-6.621v-6.622zm0 12.298h6.621v6.621h-6.621v-6.621zm0 12.406h6.621v6.623h-6.621v-6.623zm0 12.298h6.621v6.622h-6.621v-6.622zm0 12.298h6.621v6.621h-6.621v-6.621zm0 12.297h6.621v6.623h-6.621v-6.623zm0 12.297h6.621v6.624h-6.621v-6.624zm0 12.297h6.621v6.623h-6.621v-6.623zm0 12.298h6.621v6.622h-6.621v-6.622zm0 12.3h6.621v6.621h-6.621v-6.621zm0 12.299h6.621v6.619h-6.621v-6.619zm0 12.296h6.621v6.621h-6.621v-6.621zm0 12.298h6.621v6.623h-6.621v-6.623zm0 12.297h6.621v6.623h-6.621v-6.623zm0 12.297h6.621v6.623h-6.621v-6.623zm0 12.3h6.621v6.619h-6.621v-6.619zm0 12.295h6.621v6.622h-6.621v-6.622zm0 12.406h6.621v6.623h-6.621v-6.623zm0 12.299h6.621v6.622h-6.621v-6.622zm-12.299-344.552h6.623v6.622h-6.623v-6.622zm0 12.297h6.623v6.622h-6.623v-6.622zm0 12.297h6.623v6.623h-6.623v-6.623zm0 12.298h6.623v6.624h-6.623v-6.624zm0 12.299h6.623v6.622h-6.623v-6.622zm0 12.298h6.623v6.621h-6.623v-6.621zm0 12.298h6.623v6.621h-6.623v-6.621zm0 12.296h6.623v6.622h-6.623v-6.622zm0 12.298h6.623v6.622h-6.623v-6.622zm0 12.296h6.623v6.624h-6.623v-6.624zm0 12.299h6.623v6.622h-6.623v-6.622zm0 12.298h6.623v6.621h-6.623v-6.621zm0 12.406h6.623v6.623h-6.623v-6.623zm0 12.298h6.623v6.622h-6.623v-6.622zm0 12.298h6.623v6.621h-6.623v-6.621zm0 12.297h6.623v6.623h-6.623v-6.623zm0 12.297h6.623v6.624h-6.623v-6.624zm0 12.297h6.623v6.623h-6.623v-6.623zm0 12.298h6.623v6.622h-6.623v-6.622zm0 12.3h6.623v6.621h-6.623v-6.621zm0 12.299h6.623v6.619h-6.623v-6.619zm0 24.594h6.623v6.623h-6.623v-6.623zm0 12.297h6.623v6.623h-6.623v-6.623zm0 12.297h6.623v6.623h-6.623v-6.623zm0 12.3h6.623v6.619h-6.623v-6.619zm0 12.295h6.623v6.622h-6.623v-6.622zm0 12.406h6.623v6.623h-6.623v-6.623zm0 12.299h6.623v6.622h-6.623v-6.622zm-12.298-344.552h6.623v6.622h-6.623v-6.622zm0 12.297h6.623v6.622h-6.623v-6.622zm0 12.297h6.623v6.623h-6.623v-6.623zm0 12.298h6.623v6.624h-6.623v-6.624zm0 12.299h6.623v6.622h-6.623v-6.622zm0 12.298h6.623v6.621h-6.623v-6.621zm0 12.298h6.623v6.621h-6.623v-6.621zm0 12.296h6.623v6.622h-6.623v-6.622zm0 12.298h6.623v6.622h-6.623v-6.622zm0 12.296h6.623v6.624h-6.623v-6.624zm0 12.299h6.623v6.622h-6.623v-6.622zm0 24.704h6.623v6.623h-6.623v-6.623zm0 12.298h6.623v6.622h-6.623v-6.622zm0 12.298h6.623v6.621h-6.623v-6.621zm0 12.297h6.623v6.623h-6.623v-6.623zm0 12.297h6.623v6.624h-6.623v-6.624zm0 12.297h6.623v6.623h-6.623v-6.623zm0 12.298h6.623v6.622h-6.623v-6.622zm0 12.3h6.623v6.621h-6.623v-6.621zm0 12.299h6.623v6.619h-6.623v-6.619zm0 12.296h6.623v6.621h-6.623v-6.621zm0 12.298h6.623v6.623h-6.623v-6.623zm0 12.297h6.623v6.623h-6.623v-6.623zm0 12.297h6.623v6.623h-6.623v-6.623zm0 12.3h6.623v6.619h-6.623v-6.619zm0 12.295h6.623v6.622h-6.623v-6.622zm0 12.406h6.623v6.623h-6.623v-6.623zm0 12.299h6.623v6.622h-6.623v-6.622zm-12.297-319.958h6.621v6.623h-6.621v-6.623zm0 12.298h6.621v6.624h-6.621v-6.624zm0 12.299h6.621v6.622h-6.621v-6.622zm0 12.298h6.621v6.621h-6.621v-6.621zm0 12.298h6.621v6.621h-6.621v-6.621zm0 12.296h6.621v6.622h-6.621v-6.622zm0 12.298h6.621v6.622h-6.621v-6.622zm0 12.296h6.621v6.624h-6.621v-6.624zm0 12.299h6.621v6.622h-6.621v-6.622zm0 12.298h6.621v6.621h-6.621v-6.621zm0 12.406h6.621v6.623h-6.621v-6.623zm0 12.298h6.621v6.622h-6.621v-6.622zm0 12.298h6.621v6.621h-6.621v-6.621zm0 12.297h6.621v6.623h-6.621v-6.623zm0 24.594h6.621v6.623h-6.621v-6.623zm0 12.298h6.621v6.622h-6.621v-6.622zm0 12.3h6.621v6.621h-6.621v-6.621zm0 12.299h6.621v6.619h-6.621v-6.619zm0 12.296h6.621v6.621h-6.621v-6.621zm0 12.298h6.621v6.623h-6.621v-6.623zm0 12.297h6.621v6.623h-6.621v-6.623zm0 12.297h6.621v6.623h-6.621v-6.623zm0 12.3h6.621v6.619h-6.621v-6.619zm0 12.295h6.621v6.622h-6.621v-6.622zm0 12.406h6.621v6.623h-6.621v-6.623zm0 12.299h6.621v6.622h-6.621v-6.622zm-5.678-313.335h-6.621v-6.623h6.621v6.623zm-9.348-44.333h6.621v6.622h-6.621v-6.622zm0 12.298h6.621v6.622h-6.621v-6.622zm-12.299-12.298h6.621v6.622h-6.621v-6.622zm0 12.298h6.621v6.622h-6.621v-6.622zM994.957 581.688h-5.508v-5.509h5.508v5.509zm0-9.913h-5.508v-5.509h5.508v5.509zm0-9.915h-5.508v-5.507h5.508v5.507zm0-9.914h-5.508v-5.508h5.508v5.508zm0-9.913h-5.508v-5.508h5.508v5.508zm0-9.915h-5.508v-5.508h5.508v5.508zm0-9.915h-5.508v-5.508h5.508v5.508zm0-9.913h-5.508v-5.508h5.508v5.508zm0-19.828h-5.508v-5.509h5.508v5.509zm0-9.915h-5.508v-5.509h5.508v5.509zm0-9.913h-5.508v-5.509h5.508v5.509zm0-9.915h-5.508v-5.507h5.508v5.507zm0-9.915h-5.508v-5.507h5.508v5.507zm0-9.913h-5.508v-5.509h5.508v5.509zm0-9.915h-5.508v-5.508h5.508v5.508zm0-9.915h-5.508v-5.508h5.508v5.508zm0-9.914h-5.508v-5.507h5.508v5.507zm0-9.913h-5.508v-5.509h5.508v5.509zm0-19.829h-5.508v-5.508h5.508v5.508zm0-9.915h-5.508v-5.507h5.508v5.507zm0-9.913h-5.508v-5.509h5.508v5.509zm0-9.915h-5.508v-5.508h5.508v5.508zm0-9.913h-5.508v-5.509h5.508v5.509zm0-9.915h-5.508v-5.508h5.508v5.508zm0-9.913h-5.508v-5.509h5.508v5.509zm6.055-41.276v5.508h-5.506v-5.508h5.506zm-5.506-4.774v-5.508h5.506v5.508h-5.506zm5.506 15.054v5.507h-5.506v-5.507h5.506zm4.224 288.763h-5.506v-5.509h5.506v5.509zm0-9.913h-5.506v-5.509h5.506v5.509zm0-9.915h-5.506v-5.507h5.506v5.507zm0-9.914h-5.506v-5.508h5.506v5.508zm0-19.828h-5.506v-5.508h5.506v5.508zm0-9.915h-5.506v-5.508h5.506v5.508zm0-19.826h-5.506v-5.509h5.506v5.509zm0-9.915h-5.506v-5.509h5.506v5.509zm0-9.915h-5.506v-5.509h5.506v5.509zm0-9.913h-5.506v-5.509h5.506v5.509zm0-9.915h-5.506v-5.507h5.506v5.507zm0-9.915h-5.506v-5.507h5.506v5.507zm0-9.913h-5.506v-5.509h5.506v5.509zm0-9.915h-5.506v-5.508h5.506v5.508zm0-9.915h-5.506v-5.508h5.506v5.508zm0-9.914h-5.506v-5.507h5.506v5.507zm0-9.913h-5.506v-5.509h5.506v5.509zm0-9.916h-5.506v-5.508h5.506v5.508zm0-9.913h-5.506v-5.508h5.506v5.508zm0-9.915h-5.506v-5.507h5.506v5.507zm0-9.913h-5.506v-5.509h5.506v5.509zm0-9.915h-5.506v-5.508h5.506v5.508zm0-9.913h-5.506v-5.509h5.506v5.509zm0-9.915h-5.506v-5.508h5.506v5.508zm0-9.913h-5.506v-5.509h5.506v5.509zm5.69-41.276v5.508h-5.508v-5.508h5.508zm-5.508-4.774v-5.508h5.508v5.508h-5.508zm5.508 15.054v5.507h-5.508v-5.507h5.508zm4.592 288.763h-5.508v-5.509h5.508v5.509zm0-9.913h-5.508v-5.509h5.508v5.509zm0-9.915h-5.508v-5.507h5.508v5.507zm0-9.914h-5.508v-5.508h5.508v5.508zm0-9.913h-5.508v-5.508h5.508v5.508zm0-9.915h-5.508v-5.508h5.508v5.508zm0-9.915h-5.508v-5.508h5.508v5.508zm0-9.913h-5.508v-5.508h5.508v5.508zm0-9.913h-5.508v-5.509h5.508v5.509zm0-9.915h-5.508v-5.509h5.508v5.509zm0-9.915h-5.508v-5.509h5.508v5.509zm0-9.913h-5.508v-5.509h5.508v5.509zm0-9.915h-5.508v-5.507h5.508v5.507zm0-9.915h-5.508v-5.507h5.508v5.507zm0-9.913h-5.508v-5.509h5.508v5.509zm0-9.915h-5.508v-5.508h5.508v5.508zm0-9.915h-5.508v-5.508h5.508v5.508zm0-9.914h-5.508v-5.507h5.508v5.507zm0-9.913h-5.508v-5.509h5.508v5.509zm0-9.916h-5.508v-5.508h5.508v5.508zm0-9.913h-5.508v-5.508h5.508v5.508zm0-9.915h-5.508v-5.507h5.508v5.507zm0-9.913h-5.508v-5.509h5.508v5.509zm0-9.915h-5.508v-5.508h5.508v5.508zm0-9.913h-5.508v-5.509h5.508v5.509zm0-9.915h-5.508v-5.508h5.508v5.508zm0-9.913h-5.508v-5.509h5.508v5.509zm5.322-25.489h-5.508v-5.507h5.508v5.507zm0-20.561h-5.508v-5.508h5.508v5.508zm9.914 4.774v5.508h-5.508v-5.508h5.508zm-5.508-4.774v-5.508h5.508v5.508h-5.508zm5.508 15.054v5.507h-5.508v-5.507h5.508zm5.324 288.763h-5.508v-5.509h5.508v5.509zm0-9.913h-5.508v-5.509h5.508v5.509zm0-9.915h-5.508v-5.507h5.508v5.507zm0-9.914h-5.508v-5.508h5.508v5.508zm0-9.913h-5.508v-5.508h5.508v5.508zm0-9.915h-5.508v-5.508h5.508v5.508zm0-9.915h-5.508v-5.508h5.508v5.508zm0-9.913h-5.508v-5.508h5.508v5.508zm0-9.913h-5.508v-5.509h5.508v5.509zm0-9.915h-5.508v-5.509h5.508v5.509zm0-9.915h-5.508v-5.509h5.508v5.509zm0-9.913h-5.508v-5.509h5.508v5.509zm0-9.915h-5.508v-5.507h5.508v5.507zm0-9.915h-5.508v-5.507h5.508v5.507zm0-9.913h-5.508v-5.509h5.508v5.509zm0-9.915h-5.508v-5.508h5.508v5.508zm0-9.915h-5.508v-5.508h5.508v5.508zm0-9.914h-5.508v-5.507h5.508v5.507zm0-9.913h-5.508v-5.509h5.508v5.509zm0-9.916h-5.508v-5.508h5.508v5.508zm0-9.913h-5.508v-5.508h5.508v5.508zm0-9.915h-5.508v-5.507h5.508v5.507zm0-19.828h-5.508v-5.508h5.508v5.508zm0-9.913h-5.508v-5.509h5.508v5.509zm0-9.915h-5.508v-5.508h5.508v5.508zm0-9.913h-5.508v-5.509h5.508v5.509zm4.59-25.489h-5.506v-5.507h5.506v5.507zm0-10.28h-5.506v-5.508h5.506v5.508zm0-10.281h-5.506v-5.508h5.506v5.508zm5.691 303.817h-5.508v-5.509h5.508v5.509zm0-9.913h-5.508v-5.509h5.508v5.509zm0-9.915h-5.508v-5.507h5.508v5.507zm0-9.914h-5.508v-5.508h5.508v5.508zm0-9.913h-5.508v-5.508h5.508v5.508zm0-9.915h-5.508v-5.508h5.508v5.508zm0-9.915h-5.508v-5.508h5.508v5.508zm0-9.913h-5.508v-5.508h5.508v5.508zm0-9.913h-5.508v-5.509h5.508v5.509zm0-9.915h-5.508v-5.509h5.508v5.509zm0-9.915h-5.508v-5.509h5.508v5.509zm0-9.913h-5.508v-5.509h5.508v5.509zm0-9.915h-5.508v-5.507h5.508v5.507zm0-9.915h-5.508v-5.507h5.508v5.507zm0-9.913h-5.508v-5.509h5.508v5.509zm0-9.915h-5.508v-5.508h5.508v5.508zm0-9.915h-5.508v-5.508h5.508v5.508zm0-9.914h-5.508v-5.507h5.508v5.507zm0-9.913h-5.508v-5.509h5.508v5.509zm0-9.916h-5.508v-5.508h5.508v5.508zm0-9.913h-5.508v-5.508h5.508v5.508zm0-9.915h-5.508v-5.507h5.508v5.507zm0-9.913h-5.508v-5.509h5.508v5.509zm0-9.915h-5.508v-5.508h5.508v5.508zm0-9.913h-5.508v-5.509h5.508v5.509zm0-9.915h-5.508v-5.508h5.508v5.508zm0-9.913h-5.508v-5.509h5.508v5.509zm4.225-25.489h-5.508v-5.507h5.508v5.507zm0-10.28h-5.508v-5.508h5.508v5.508zm0-10.281h-5.508v-5.508h5.508v5.508zm6.057 303.817h-5.51v-5.509h5.51v5.509zm0-9.913h-5.51v-5.509h5.51v5.509zm0-9.915h-5.51v-5.507h5.51v5.507zm0-9.914h-5.51v-5.508h5.51v5.508zm0-9.913h-5.51v-5.508h5.51v5.508zm0-9.915h-5.51v-5.508h5.51v5.508zm0-9.915h-5.51v-5.508h5.51v5.508zm0-9.913h-5.51v-5.508h5.51v5.508zm0-9.913h-5.51v-5.509h5.51v5.509zm0-19.83h-5.51v-5.509h5.51v5.509zm0-9.913h-5.51v-5.509h5.51v5.509zm0-9.915h-5.51v-5.507h5.51v5.507zm0-9.915h-5.51v-5.507h5.51v5.507zm0-9.913h-5.51v-5.509h5.51v5.509zm0-9.915h-5.51v-5.508h5.51v5.508zm0-9.915h-5.51v-5.508h5.51v5.508zm0-9.914h-5.51v-5.507h5.51v5.507zm0-9.913h-5.51v-5.509h5.51v5.509zm0-9.916h-5.51v-5.508h5.51v5.508zm0-9.913h-5.51v-5.508h5.51v5.508zm0-9.915h-5.51v-5.507h5.51v5.507zm0-9.913h-5.51v-5.509h5.51v5.509zm0-9.915h-5.51v-5.508h5.51v5.508zm0-9.913h-5.51v-5.509h5.51v5.509zm0-9.915h-5.51v-5.508h5.51v5.508zm0-9.913h-5.51v-5.509h5.51v5.509zm3.855-25.489h-5.508v-5.507h5.508v5.507zm0-10.28h-5.508v-5.508h5.508v5.508zm50.117 288.982-8.879-2.379-13.359-3.58v-2.753l13.359 3.578 8.879 2.378v2.756zm0-9.915-5.914-1.584-2.965-.794-13.359-3.579v-2.754l13.359 3.58 2.965.795 5.914 1.584v2.752zm0-9.913-5.914-1.584-2.965-.794-13.359-3.579v-2.755l13.359 3.579 2.965.795 5.914 1.584v2.754zm0-9.913-5.914-1.584-2.965-.795-3.227-.865-10.133-2.715v-2.754l10.133 2.715 3.227.864 2.965.794 5.914 1.584v2.756zm0-9.915-5.914-1.585-2.965-.794-3.227-.864-10.133-2.716v-2.753l10.133 2.716 3.227.864 2.965.795 5.914 1.585v2.752zm0-9.915-5.914-1.584-2.965-.794-3.227-.864-10.133-2.715v-2.755l10.133 2.716 3.227.865 2.965.794 5.914 1.585v2.752zm0-9.913-5.914-1.585-2.965-.794-3.227-.865-10.133-2.716v-2.753l10.133 2.715 3.227.864 2.965.795 5.914 1.584v2.755zm0-9.914-5.914-1.585-2.965-.794-3.227-.865-10.133-2.716v-2.754l10.133 2.716 3.227.865 2.965.794 5.914 1.585v2.754zm0-9.915-5.914-1.584-2.965-.794-3.227-.865-10.133-2.714v-2.757l10.133 2.716 3.227.864 2.965.795 5.914 1.585v2.754zm0-9.915-5.914-1.584-2.965-.795-3.227-.864-10.133-2.715v-2.754l10.133 2.715 3.227.864 2.965.795 5.914 1.584v2.754zm0-9.915-5.914-1.584-2.965-.794-3.227-.864-10.133-2.714v-2.754l10.133 2.715 3.227.864 2.965.794 5.914 1.584v2.753zm0-9.913-5.914-1.584-2.965-.795-3.227-.864-10.133-2.715v-2.754l10.133 2.715 3.227.864 2.965.795 5.914 1.584v2.754zm0-9.913-5.914-1.585-2.965-.795-3.227-.864-10.133-2.716v-2.754l10.133 2.715 3.227.865 2.965.795 5.914 1.584v2.755zm0-9.915-5.914-1.584-2.965-.795-3.227-.864-10.133-2.715v-2.754l10.133 2.715 3.227.864 2.965.795 5.914 1.584v2.754zm0-9.915-5.914-1.584-2.965-.795-3.227-.864-10.133-2.715v-2.754l10.133 2.715 3.227.865 2.965.795 5.914 1.584v2.753zm0-9.913-5.914-1.585-1.002-.269-5.189-1.391-10.133-2.716v-2.753l10.133 2.715 6.191 1.659 5.914 1.584v2.756zm0-9.915-5.914-1.584-6.191-1.659-10.133-2.715v-2.754l10.133 2.715 6.191 1.659 5.914 1.584v2.754zm0-9.913-5.914-1.584-6.191-1.659-10.133-2.715v-2.754l10.133 2.714 6.191 1.659 5.914 1.584v2.755zm0-9.916-5.914-1.584-6.191-1.66-10.133-2.715v-2.753l10.133 2.716 6.191 1.658 5.914 1.585v2.753zm0-9.912-5.914-1.585-6.191-1.659-10.133-2.716v-2.753l10.133 2.715 6.191 1.66 5.914 1.584v2.754zm0-9.914-5.914-1.585-6.191-1.659-10.133-2.716v-2.753l10.133 2.715 6.191 1.659 5.914 1.584v2.755zm0-9.915-5.914-1.585-6.191-1.658-10.133-2.716v-2.753l10.133 2.715 6.191 1.659 5.914 1.584v2.754zm0-9.916-5.914-1.584-6.191-1.66-10.133-2.715v-2.753l10.133 2.715 6.191 1.659 5.914 1.584v2.754zm0-9.913-5.914-1.585-6.191-1.658-10.133-2.716v-2.753l10.133 2.715 6.191 1.659 5.914 1.584v2.754zm0-9.915-5.914-1.584-6.191-1.66-10.133-2.715v-2.753l10.133 2.715 6.191 1.659 5.914 1.584v2.754zm0-12.668v2.755l-5.914-1.584-6.191-1.659-10.133-2.715v-2.755l10.133 2.715 6.191 1.659 5.914 1.584zm-16.236-47.458 4.131 1.106 1.154.309v6.623l-1.154-.309-4.131-1.107v-6.622zm0 12.297 4.131 1.106 1.154.31v6.623l-1.154-.31-4.131-1.107v-6.622zm0 12.297 4.131 1.108 1.154.31v2.654l-1.154-.31-4.131-1.106v-2.656zm-6.527-43.93 5.285 1.417v6.622l-5.285-1.417v-6.622zm-3.291 16.706 5.285 1.416v6.622l-5.285-1.416v-6.622zm0 12.296 5.285 1.417v6.622l-5.285-1.416v-6.623zm0 12.298 5.285 1.415v2.656l-5.285-1.416v-2.655zm-6.528-43.929 5.285 1.416v6.622l-5.285-1.417v-6.621zm-3.291 16.703 5.287 1.418v6.621l-5.287-1.416v-6.623zm0 12.298 5.287 1.416v6.623l-5.287-1.417v-6.622zm0 12.297 5.287 1.416v2.707h-5.287V298.4zm-6.527-43.929 5.287 1.416v6.622l-5.287-1.417v-6.621zm-6.801 63.941h5.508v5.509h-5.508v-5.509zm0 9.914h5.508v5.508h-5.508v-5.508zm0 9.914h5.508v5.509h-5.508v-5.509zm0 9.914h5.508v5.508h-5.508v-5.508zm0 9.914h5.508v5.509h-5.508v-5.509zm0 9.915h5.508v5.507h-5.508v-5.507zm0 9.914h5.508v5.508h-5.508v-5.508zm0 9.914h5.508v5.508h-5.508v-5.508zm0 9.915h5.508v5.509h-5.508v-5.509zm0 9.915h5.508v5.507h-5.508v-5.507zm0 9.912h5.508v5.508h-5.508v-5.508zm0 9.915h5.508v5.508h-5.508v-5.508zm0 9.914h5.508v5.509h-5.508v-5.509zm0 9.915h5.508v5.507h-5.508v-5.507zm0 9.915h5.508v5.507h-5.508v-5.507zm0 9.913h5.508v5.509h-5.508v-5.509zm0 9.913h5.508v5.509h-5.508v-5.509zm0 9.915h5.508v5.509h-5.508v-5.509zm0 9.915h5.508v5.509h-5.508v-5.509zm0 9.914h5.508v5.508h-5.508v-5.508zm0 9.913h5.508v5.508h-5.508v-5.508zm0 9.915h5.508v5.508h-5.508v-5.508zm0 9.915h5.508v5.508h-5.508v-5.508zm0 9.913h5.508v5.508h-5.508v-5.508zm0 9.916h5.508v5.507h-5.508v-5.507zm0 9.913h5.508v5.509h-5.508v-5.509zm0 9.913h5.508v5.509h-5.508v-5.509zm-.916-298.309h-5.508v-5.508h5.508v5.508zm-10.463-23.639h5.508v5.508h-5.508v-5.508zm-9.914 0h5.508v5.508h-5.508v-5.508zm-9.914 0h5.508v5.508h-5.508v-5.508zm-9.914 0h5.506v5.508h-5.506v-5.508zm-9.914 0h5.508v5.508h-5.508v-5.508zm-9.914 0h5.508v5.508h-5.508v-5.508zm-9.916 0h5.508v5.508h-5.508v-5.508zm-4.957 18.131h5.508v5.508h-5.508v-5.508zm0 10.282h5.508v5.508h-5.508v-5.508zm0 10.28h5.508v5.507h-5.508v-5.507zm-6.422 25.487h5.508v5.509h-5.508v-5.509zm0 9.914h5.508v5.508h-5.508v-5.508zm0 9.914h5.508v5.509h-5.508v-5.509zm0 9.914h5.508v5.508h-5.508v-5.508zm0 9.914h5.508v5.509h-5.508v-5.509zm0 9.915h5.508v5.507h-5.508v-5.507zm0 9.914h5.508v5.508h-5.508v-5.508zm0 9.914h5.508v5.508h-5.508v-5.508zm0 9.915h5.508v5.509h-5.508v-5.509zm0 9.915h5.508v5.507h-5.508v-5.507zm0 9.912h5.508v5.508h-5.508v-5.508zm0 9.915h5.508v5.508h-5.508v-5.508zm0 9.914h5.508v5.509h-5.508v-5.509zm0 9.915h5.508v5.507h-5.508v-5.507zm0 9.915h5.508v5.507h-5.508v-5.507zm0 9.913h5.508v5.509h-5.508v-5.509zm0 9.913h5.508v5.509h-5.508v-5.509zm0 9.915h5.508v5.509h-5.508v-5.509zm0 9.915h5.508v5.509h-5.508v-5.509zm0 9.914h5.508v5.508h-5.508v-5.508zm0 9.913h5.508v5.508h-5.508v-5.508zm0 9.915h5.508v5.508h-5.508v-5.508zm0 9.915h5.508v5.508h-5.508v-5.508zm0 9.913h5.508v5.508h-5.508v-5.508zm0 9.916h5.508v5.507h-5.508v-5.507zm0 9.913h5.508v5.509h-5.508v-5.509zm0 9.913h5.508v5.509h-5.508v-5.509zm-53.969-194.742 9.953 2.667v5.881l-9.953-2.666v-5.882zm0 17.56 9.953 2.666v5.881l-9.953-2.666v-5.881zm0 8.804 9.953 2.665v5.884l-9.953-2.668v-5.881zm0 8.803 9.953 2.668v5.882l-9.953-2.667v-5.883zm0 8.804 9.953 2.668v5.878l-1.215-.325-8.738-2.339v-5.882zm0 8.804 8.738 2.342 1.215.325v5.881l-1.215-.325-8.738-2.341v-5.882zm0 8.803 8.738 2.341 1.215.325v5.882l-1.215-.325-8.738-2.342v-5.881zm0 8.803 8.738 2.342 1.215.325v5.881l-1.215-.325-8.738-2.343v-5.88zm0 8.804 8.738 2.342 1.215.325v5.881l-1.215-.325-8.738-2.341v-5.882zm0 8.803 8.738 2.341 1.215.325v5.883l-1.215-.325-8.738-2.341v-5.883zm0 17.607 8.738 2.343 1.215.325v5.882l-1.215-.325-8.738-2.343v-5.882zm0 17.61 8.738 2.339 1.215.325v5.883l-1.215-.325-8.738-2.342v-5.88zm0 8.802 8.738 2.341 1.215.325v5.878l-1.215-.325-8.738-2.34v-5.879zm0 8.802 8.738 2.34 1.215.325v5.885l-1.215-.325-8.738-2.343v-5.882zm0 8.804 8.738 2.342 1.215.325v5.883l-1.215-.325-8.738-2.341v-5.884zm0 8.804 8.738 2.343 1.215.325v5.88l-1.215-.325-8.738-2.342v-5.881zm0 8.768 8.738 2.343 1.215.325v5.88l-1.215-.325-8.738-2.342v-5.881zm0 8.804 8.738 2.342 1.215.325v5.881l-1.215-.325-8.738-2.341v-5.882zm0 8.803 8.738 2.343 1.215.325v5.879l-1.215-.325-8.738-2.342v-5.88zm0 8.803 8.738 2.341 1.215.325v5.883l-1.215-.325-8.738-2.341v-5.883zm0 8.806 6.727 1.802h-6.727v-1.802zM900.24 382.124h9.951v5.881h-9.951v-5.881zm0 8.804h9.951v5.881h-9.951v-5.881zm0 8.802h9.951v5.882h-9.951v-5.882zm0 8.803h9.951v5.882h-9.951v-5.882zm0 8.804h9.951v5.882h-9.951v-5.882zm0 8.803h9.951v5.883h-9.951v-5.883zm0 8.805h9.951v5.881h-9.951v-5.881zm0 26.411h9.951v5.88h-9.951v-5.88zm0 8.804h9.951v5.88h-9.951v-5.88zm0 8.803h9.951v5.881h-9.951v-5.881zm0 17.606h9.951v5.881h-9.951v-5.881zm0 8.804h9.951v5.881h-9.951v-5.881zm-25.838-147.392 9.951 2.665v5.883l-5.191-1.392-4.76-1.276v-5.88zm0 17.56 9.951 2.665v5.882l-9.951-2.667v-5.88zm0 8.803 9.951 2.666v5.883l-9.951-2.667v-5.882zm0 8.804 9.951 2.667v5.882l-9.951-2.667v-5.882zm0 8.803 9.951 2.668v5.88l-9.951-2.666v-5.882zm0 8.804 9.951 2.668v5.88l-9.951-2.666v-5.882zm0 8.803 9.951 2.667v5.883l-9.951-2.669v-5.881zm0 8.803 9.951 2.668v5.882l-9.951-2.668v-5.882zm0 8.804 9.951 2.667v5.881l-9.951-2.668v-5.88zm0 8.803 9.951 2.667v5.883l-9.951-2.669v-5.881zm0 17.609 9.951 2.667v5.881l-9.951-2.667v-5.881zm0 8.804 9.951 2.665v5.882l-9.951-2.667v-5.88zm0 8.803 9.951 2.666v5.882l-9.951-2.667v-5.881zm0 8.803 9.951 2.668v5.878l-9.951-2.666v-5.88zm0 26.409 9.951 2.67v5.88l-9.951-2.667v-5.883zm0 8.769 9.951 2.668v5.882l-9.951-2.667v-5.883zm0 8.806 9.951 2.666v5.88l-9.951-2.666v-5.88zm0 8.803 9.951 2.667v5.878l-9.951-2.667v-5.878zm0 8.801 9.951 2.668v5.882l-9.951-2.669v-5.881zm0 8.806 9.951 2.666v5.883l-9.951-2.668v-5.881zm0 8.804 9.951 2.667v5.879l-9.951-2.666v-5.88zm-27.256-213.523h9.951v5.882h-9.951v-5.882zm0 17.561h9.951v5.881h-9.951v-5.881zm0 8.803h9.951v5.882h-9.951v-5.882zm0 8.804h9.951v5.882h-9.951v-5.882zm0 8.805h9.951v5.88h-9.951v-5.88zm0 8.803h9.951v5.881h-9.951v-5.881zm0 8.802h9.951v5.882h-9.951v-5.882zm0 8.805h9.951v5.881h-9.951v-5.881zm0 8.803h9.951v5.88h-9.951v-5.88zm0 8.802h9.951v5.881h-9.951v-5.881zm0 8.804h9.951v5.884h-9.951v-5.884zm0 8.804h9.951v5.882h-9.951v-5.882zm0 8.805h9.951v5.881h-9.951v-5.881zm0 8.803h9.951v5.881h-9.951v-5.881zm0 8.804h9.951v5.88h-9.951v-5.88zm0 17.606h9.951v5.881h-9.951v-5.881zm0 8.804h9.951v5.88h-9.951v-5.88zm0 8.768h9.951v5.88h-9.951v-5.88zm0 8.804h9.951v5.881h-9.951v-5.881zm0 8.804h9.951v5.878h-9.951v-5.878zm0 8.802h9.951v5.882h-9.951v-5.882zm0 8.804h9.951v5.884h-9.951v-5.884zm0 8.804h9.951v5.881h-9.951v-5.881zm-23.16-211.204h9.953v5.882h-9.953v-5.882zm0 17.561h9.953v5.881h-9.953v-5.881zm0 8.803h9.953v5.882h-9.953v-5.882zm0 8.804h9.953v5.882h-9.953v-5.882zm0 8.805h9.953v5.88h-9.953v-5.88zm0 8.803h9.953v5.881h-9.953v-5.881zm0 8.802h9.953v5.882h-9.953v-5.882zm0 8.805h9.953v5.881h-9.953v-5.881zm0 8.803h9.953v5.88h-9.953v-5.88zm0 8.802h9.953v5.881h-9.953v-5.881zm0 17.608h9.953v5.882h-9.953v-5.882zm0 8.805h9.953v5.881h-9.953v-5.881zm0 8.803h9.953v5.881h-9.953v-5.881zm0 8.804h9.953v5.88h-9.953v-5.88zm0 8.803h9.953v5.879h-9.953v-5.879zm0 8.803h9.953v5.881h-9.953v-5.881zm0 8.804h9.953v5.88h-9.953v-5.88zm0 8.768h9.953v5.88h-9.953v-5.88zm0 8.804h9.953v5.881h-9.953v-5.881zm0 8.804h9.953v5.878h-9.953v-5.878zm0 8.802h9.953v5.882h-9.953v-5.882zm0 8.804h9.953v5.884h-9.953v-5.884zm0 8.804h9.953v5.881h-9.953v-5.881zm-23.158-211.204h9.955v5.882h-9.955v-5.882zm0 17.561h9.955v5.881h-9.955v-5.881zm0 8.803h9.955v5.882h-9.955v-5.882zm0 8.804h9.955v5.882h-9.955v-5.882zm0 8.805h9.955v5.88h-9.955v-5.88zm0 8.803h9.955v5.881h-9.955v-5.881zm0 8.802h9.955v5.882h-9.955v-5.882zm0 8.805h9.955v5.881h-9.955v-5.881zm0 8.803h9.955v5.88h-9.955v-5.88zm0 8.802h9.955v5.881h-9.955v-5.881zm0 8.804h9.955v5.884h-9.955v-5.884zm0 8.804h9.955v5.882h-9.955v-5.882zm0 8.805h9.955v5.881h-9.955v-5.881zm0 8.803h9.955v5.881h-9.955v-5.881zm0 8.804h9.955v5.88h-9.955v-5.88zm0 8.803h9.955v5.879h-9.955v-5.879zm0 8.803h9.955v5.881h-9.955v-5.881zm0 8.804h9.955v5.88h-9.955v-5.88zm0 8.768h9.955v5.88h-9.955v-5.88zm0 8.804h9.955v5.881h-9.955v-5.881zm0 8.804h9.955v5.878h-9.955v-5.878zm0 8.802h9.955v5.882h-9.955v-5.882zm0 8.804h9.955v5.884h-9.955v-5.884zm0 8.804h9.955v5.881h-9.955v-5.881zm-13.156-184.742h4.508v5.881h-4.508v-5.881zm0 8.804h4.508v5.881h-4.508v-5.881zm0 8.802h4.508v5.882h-4.508v-5.882zm0 8.803h4.508v5.882h-4.508v-5.882zm0 8.804h4.508v5.882h-4.508v-5.882zm0 8.803h4.508v5.883h-4.508v-5.883zm0 8.805h4.508v5.881h-4.508v-5.881zm0 8.804h4.508v5.881h-4.508v-5.881zm0 8.802h4.508v5.884h-4.508v-5.884zm0 8.805h4.508v5.88h-4.508v-5.88zm0 8.804h4.508v5.88h-4.508v-5.88zm0 8.803h4.508v5.881h-4.508v-5.881zm0 8.803h4.508v5.883h-4.508v-5.883zm0 8.803h4.508v5.881h-4.508v-5.881zm0 8.804h4.508v5.881h-4.508v-5.881zm-119.893 80.268-4.141-9.807-4.141 9.807h-4.281l1.963-4.651 5.053-11.964h2.813l7.016 16.615h-4.282zm17.35 0-4.141-9.805-4.137 9.805h-4.281l7.014-16.615h2.809l7.016 16.615h-4.28zm17.351 0-4.141-9.807-4.141 9.807h-4.281l7.016-16.615h2.811l7.02 16.615h-4.284zm17.36 0-3.129-7.41-1.012-2.396-4.143 9.807h-4.281l7.018-16.615h2.811l7.016 16.615h-4.28zm3.777-16.616v-.108h2.057v-.015h2.838v.123h-4.895zm23.084-19.41-.078-.688h.078v.688zm0-4.883h-.551l-.553-4.896h1.104v4.896zm0-9.092h-1.576l-.551-4.897h2.127v4.897zm0-9.093h-2.6l-.553-4.896h3.152v4.896zm0-9.092h-3.625l-.553-4.896h4.178v4.896zm9.09 63.729h-1.596l-2.068-4.896h3.664v4.896zm4.197-241.465h4.896v4.896h-4.896v-4.896zm0 9.093h4.896v4.897h-4.896v-4.897zm0 9.092h4.896v4.896h-4.896v-4.896zm0 9.094h4.896v4.896h-4.896v-4.896zm0 9.092h4.896v4.896h-4.896v-4.896zm0 9.093h4.896v4.896h-4.896v-4.896zm0 9.091h4.896v4.897h-4.896v-4.897zm0 9.093h4.896v4.896h-4.896v-4.896zm0 9.093h4.896v4.896h-4.896v-4.896zm0 9.093h4.896v4.895h-4.896v-4.895zm0 9.173h4.896v4.895h-4.896v-4.895zm0 9.092h4.896v4.896h-4.896v-4.896zm0 9.092h4.896v4.895h-4.896v-4.895zm0 9.093h4.896v4.896h-4.896v-4.896zm0 9.093h4.896v4.896h-4.896v-4.896zm0 9.092h4.896v4.896h-4.896v-4.896zm0 9.093h4.896v4.895h-4.896v-4.895zm0 9.091h4.896v4.898h-4.896v-4.898zm0 9.094h4.896v4.897h-4.896v-4.897zm0 9.093h4.896v4.896h-4.896v-4.896zm0 9.092h4.896v4.896h-4.896v-4.896zm0 9.091h4.896v4.897h-4.896v-4.897zm0 9.094h4.896v4.896h-4.896v-4.896zm0 9.092h4.896v4.897h-4.896v-4.897zm0 9.093h4.896v4.896h-4.896v-4.896zm0 9.174h4.896v4.896h-4.896v-4.896zm0 9.093h4.896v4.896h-4.896v-4.896zm-9.092-236.569h4.895v4.896h-4.895v-4.896zm0 9.093h4.895v4.897h-4.895v-4.897zm0 9.092h4.895v4.896h-4.895v-4.896zm0 9.094h4.895v4.896h-4.895v-4.896zm0 9.092h4.895v4.896h-4.895v-4.896zm0 18.184h4.895v4.897h-4.895v-4.897zm0 9.093h4.895v4.896h-4.895v-4.896zm0 9.093h4.895v4.896h-4.895v-4.896zm0 9.093h4.895v4.895h-4.895v-4.895zm0 9.173h4.895v4.895h-4.895v-4.895zm0 9.092h4.895v4.896h-4.895v-4.896zm0 9.092h4.895v4.895h-4.895v-4.895zm0 9.093h4.895v4.896h-4.895v-4.896zm0 9.093h4.895v4.896h-4.895v-4.896zm0 9.092h4.895v4.896h-4.895v-4.896zm0 9.093h4.895v4.895h-4.895v-4.895zm0 18.185h4.895v4.897h-4.895v-4.897zm0 9.093h4.895v4.896h-4.895v-4.896zm0 9.092h4.895v4.896h-4.895v-4.896zm0 9.091h4.895v4.897h-4.895v-4.897zm0 9.094h4.895v4.896h-4.895v-4.896zm0 9.092h4.895v4.897h-4.895v-4.897zm0 9.093h4.895v4.896h-4.895v-4.896zm0 9.174h4.895v4.896h-4.895v-4.896zm-9.093-227.476h4.898v4.896h-4.898v-4.896zm0 9.093h4.898v4.897h-4.898v-4.897zm0 9.092h4.898v4.896h-4.898v-4.896zm0 9.094h4.898v4.896h-4.898v-4.896zm0 9.092h4.898v4.896h-4.898v-4.896zm0 9.093h4.898v4.896h-4.898v-4.896zm0 9.091h4.898v4.897h-4.898v-4.897zm0 18.186h4.898v4.896h-4.898v-4.896zm0 9.093h4.898v4.895h-4.898v-4.895zm0 9.173h4.898v4.895h-4.898v-4.895zm0 9.092h4.898v4.896h-4.898v-4.896zm0 9.092h4.898v4.895h-4.898v-4.895zm0 9.093h4.898v4.896h-4.898v-4.896zm0 9.093h4.898v4.896h-4.898v-4.896zm0 9.092h4.898v4.896h-4.898v-4.896zm0 9.093h4.898v4.895h-4.898v-4.895zm0 9.091h4.898v4.898h-4.898v-4.898zm0 9.094h4.898v4.897h-4.65l-.248-2.2v-2.697zm0 65.436h4.898v.123h-4.898v-.123zm-9.092-229.183h4.896v4.896h-4.896v-4.896zm0 9.093h4.896v4.897h-4.896v-4.897zm0 9.092h4.896v4.896h-4.896v-4.896zm0 9.094h4.896v4.896h-4.896v-4.896zm0 9.092h4.896v4.896h-4.896v-4.896zm0 9.093h4.896v4.896h-4.896v-4.896zm0 9.091h4.896v4.897h-4.896v-4.897zm0 9.093h4.896v4.896h-4.896v-4.896zm0 9.093h4.896v4.896h-4.896v-4.896zm0 9.093h4.896v4.895h-4.789l-.107-.959v-3.936zm4.217 41.346-.553-4.896h1.232v4.896h-.679zm.679 4.197v1.836l-.207-1.836h.207zm-1.705-13.291-.553-4.895h2.258v4.895h-1.705zm-1.025-9.091-.551-4.896h3.281v4.896h-2.73zm-1.025-9.094-.551-4.895h4.307v4.895h-3.756zm-1.141 133.405v-.123h4.896v.123h-3.143l1.297 3.065 1.773 4.197.072.17 3.881 9.183h-4.281l-1.885-4.457-2.068-4.896-.193-.458-.193.458-.156.371-3.797 8.981h-4.281l1.885-4.457 1.994-4.719 3.145-7.439h1.054zm-7.037-229.306h2.838v4.896h-2.838v-4.896zm0 9.093h2.838v4.897h-2.838v-4.897zm0 9.092h2.838v4.896h-2.838v-4.896zm2.021 23.082-.553-4.896h1.369v4.896h-.816zm.817 4.197v3.057l-.344-3.057h.344zm-1.842-13.289-.553-4.896h2.395v4.896h-1.842zm-44.223-121.365.063-.592.199-1.896h13.936l.123 1.159.006.06.17 1.617H682.41l.037-.348zm-.586 5.577h15.631l.299 2.836h-16.227l.297-2.836zm-.847 8.066h17.326l.299 2.836h-17.922l.297-2.836zm-.846 8.065h19.018l.299 2.836H679.87l.298-2.836zm-.848 8.066h20.713l.299 2.836h-21.309l.297-2.836zm-.847 8.066h22.408l.297 2.835h-23.004l.299-2.835zm-.848 8.066h24.104l.297 2.835h-24.697l.296-2.835zm-.848 8.065h25.799l.297 2.835H676.48l.297-2.835zm-.847 8.065h27.492l.299 2.834h-28.088l.297-2.834zm-.846 8.066h29.186l.297 2.835h-29.781l.298-2.835zm-.848 8.065h30.881l.299 2.835h-31.477l.297-2.835zm-.847 8.066h32.574l.301 2.834h-33.172l.297-2.834zm-.848 8.064h34.27l.299 2.836h-34.865l.296-2.836zm-.848 8.065h35.965l.299 2.836h-36.561l.297-2.836zm-.845 8.065h37.658l.297 2.836h-38.254l.299-2.836zm-.848 8.065h39.354l.297 2.836h-39.947l.296-2.836zm-.848 8.066h41.049l.297 2.837h-41.643l.297-2.837zm-.847 8.065h42.742l.299 2.836h-43.338l.297-2.836zm-.846 8.066h44.436l.297 2.836H667.16l.299-2.836zm-.848 8.065h46.131l.297 2.836h-46.725l.297-2.836zm-.847 8.065h47.826l.297 2.837h-48.42l.297-2.837zm-.846 8.066h49.518l.299 2.836H664.62l.298-2.836zm-.848 8.065h51.215l.297 2.837h-51.811l.299-2.837zm-.847 8.066h52.906l.301 2.836h-53.504l.297-2.836zm-.848 8.066h54.604l.297 2.835h-55.197l.296-2.835zm-.848 8.064h56.299l.297 2.837H661.23l.297-2.837zm-.847 8.065h57.992l.299 2.836h-58.588l.297-2.836zm-.846 8.066h59.686l.297 2.835h-60.281l.298-2.835zm-.848 8.065h61.381l.297 2.836h-61.975l.297-2.836zm-.847 8.066h63.074l.299 2.835h-63.67l.297-2.835zm-.959 9.134.113-1.069h64.768l.299 2.837h-65.365l.185-1.768zm-.735 6.998h66.465l.295 2.834h-67.059l.299-2.834zm-.847 8.064h68.158l.234 2.23.064.605H655.3l.298-2.835zm-.846 8.065h69.852l.297 2.836h-70.447l.298-2.836zm-.848 8.066h71.545l.225 2.115.074.721h-72.143l.299-2.836zm-.847 8.065h73.24l.043.413.256 2.423H652.76l.297-2.836zm-.848 8.064h74.936l.152 1.443.146 1.393h-75.531l.297-2.836zm-.848 8.067h76.629l.262 2.468.039.368h-77.227l.297-2.836zm-.845 8.065h78.322l.299 2.834h-78.92l.299-2.834zm-5.09 14.5h2.264l7.018 16.615h-4.283l-4.139-9.807-4.141 9.807h-3.734l7.015-16.615zm-81.719-297.259h3.633v313.875h-3.633V271.766zm-10.894-20.339h5.084v334.214h-5.084V251.427zm-10.899 0H547v334.214h-5.086V251.427zm-9.443 20.339h3.633v313.875h-3.633V271.766zm-54.76 179.815h7.008v4.428h-7.008v-4.428zm0 8.22h7.008v4.428h-7.008v-4.428zm0 8.22h7.008v4.428h-7.008v-4.428zm0 8.293h7.008v4.426h-7.008v-4.426zm0 8.22h7.008v4.426h-7.008v-4.426zm0 16.44h7.008v4.427h-7.008v-4.427zm0 8.219h7.008v4.428h-7.008v-4.428zm0 8.221h7.008v4.426h-7.008v-4.426zm0 8.221h7.008v4.426h-7.008v-4.426zm0 8.219h7.008v4.428h-7.008v-4.428zm0 8.22h7.008v4.427h-7.008v-4.427zm0 8.221h7.008v4.426h-7.008v-4.426zm0 8.22h7.008v4.426h-7.008v-4.426zm-13.632-106.934h7.008v4.428h-7.008v-4.428zm0 8.22h7.008v4.428h-7.008v-4.428zm0 8.22h7.008v4.428h-7.008v-4.428zm0 8.293h7.008v4.426h-7.008v-4.426zm0 8.22h7.008v4.426h-7.008v-4.426zm0 8.22h7.008v4.428h-7.008v-4.428zm0 8.22h7.008v4.427h-7.008v-4.427zm0 8.219h7.008v4.428h-7.008v-4.428zm0 8.221h7.008v4.426h-7.008v-4.426zm0 8.221h7.008v4.426h-7.008v-4.426zm0 8.219h7.008v4.428h-7.008v-4.428zm0 8.22h7.008v4.427h-7.008v-4.427zm0 8.221h7.008v4.426h-7.008v-4.426zm0 8.22h7.008v4.426h-7.008v-4.426zm-33.158-131.593h7.008v4.426h-7.008v-4.426zm0 8.22h7.008v4.426h-7.008v-4.426zm0 8.218h7.008v4.427h-7.008v-4.427zm0 8.221h7.008v4.428h-7.008v-4.428zm0 8.22h7.008v4.428h-7.008v-4.428zm0 8.22h7.008v4.428h-7.008v-4.428zm0 8.293h7.008v4.426h-7.008v-4.426zm0 8.22h7.008v4.426h-7.008v-4.426zm0 8.22h7.008v4.428h-7.008v-4.428zm0 8.22h7.008v4.427h-7.008v-4.427zm0 8.219h7.008v4.428h-7.008v-4.428zm0 8.221h7.008v4.426h-7.008v-4.426zm0 8.221h7.008v4.426h-7.008v-4.426zm0 8.219h7.008v4.428h-7.008v-4.428zm0 8.22h7.008v4.427h-7.008v-4.427zm0 8.221h7.008v4.426h-7.008v-4.426zm0 8.22h7.008v4.426h-7.008v-4.426zM416.79 426.922h7.008v4.426h-7.008v-4.426zm0 8.22h7.008v4.426h-7.008v-4.426zm0 8.218h7.008v4.427h-7.008v-4.427zm0 8.221h7.008v4.428h-7.008v-4.428zm0 8.22h7.008v4.428h-7.008v-4.428zm0 8.22h7.008v4.428h-7.008v-4.428zm0 8.293h7.008v4.426h-7.008v-4.426zm0 8.22h7.008v4.426h-7.008v-4.426zm0 8.22h7.008v4.428h-7.008v-4.428zm0 8.22h7.008v4.427h-7.008v-4.427zm0 8.219h7.008v4.428h-7.008v-4.428zm0 8.221h7.008v4.426h-7.008v-4.426zm0 8.221h7.008v4.426h-7.008v-4.426zm0 8.219h7.008v4.428h-7.008v-4.428zm0 8.22h7.008v4.427h-7.008v-4.427zm0 8.221h7.008v4.426h-7.008v-4.426zm0 8.22h7.008v4.426h-7.008v-4.426zm-7.018-180.912h7.009v4.427h-7.009v-4.427zm0 8.219h7.009v4.426h-7.009v-4.426zm0 8.22h7.009v4.427h-7.009v-4.427zm-20.109-16.439h7.008v4.427h-7.008v-4.427zm0 8.219h7.008v4.426h-7.008v-4.426zm0 8.22h7.008v4.427h-7.008v-4.427zm0 8.22h6.792a7.859 7.859 0 0 0-.593 2.996v1.432h-6.199v-4.428zm0 8.219h6.199v4.427h-6.199v-4.427zm-5.068 16.441h7.008v4.426h-7.008v-4.426zm0 8.22h7.008v4.426h-7.008v-4.426zm0 8.218h7.008v4.427h-7.008v-4.427zm0 8.221h7.008v4.428h-7.008v-4.428zm0 8.22h7.008v4.428h-7.008v-4.428zm0 8.22h7.008v4.428h-7.008v-4.428zm0 8.293h7.008v4.426h-7.008v-4.426zm0 8.22h7.008v4.426h-7.008v-4.426zm0 8.22h7.008v4.428h-7.008v-4.428zm0 8.22h7.008v4.427h-7.008v-4.427zm0 8.219h7.008v4.428h-7.008v-4.428zm0 8.221h7.008v4.426h-7.008v-4.426zm0 8.221h7.008v4.426h-7.008v-4.426zm0 8.219h7.008v4.428h-7.008v-4.428zm0 8.22h7.008v4.427h-7.008v-4.427zm0 8.221h7.008v4.426h-7.008v-4.426zm0 8.22h7.008v4.426h-7.008v-4.426zm-30.26-180.912h7.007v4.427h-7.007v-4.427zm0 8.219h7.007v4.426h-7.007v-4.426zm0 8.22h7.007v4.427h-7.007v-4.427zm0 8.22h7.007v4.428h-7.007v-4.428zm0 8.219h7.007v4.427h-7.007v-4.427zm0 8.222h7.007v4.425h-7.007v-4.425zm0 8.219h7.007v4.426h-7.007v-4.426zm0 8.22h7.007v4.426h-7.007v-4.426zm0 8.218h7.007v4.427h-7.007v-4.427zm0 8.221h7.007v4.428h-7.007v-4.428zm0 8.22h7.007v4.428h-7.007v-4.428zm0 8.22h7.007v4.428h-7.007v-4.428zm0 8.293h7.007v4.426h-7.007v-4.426zm0 8.22h7.007v4.426h-7.007v-4.426zm0 8.22h7.007v4.428h-7.007v-4.428zm0 8.22h7.007v4.427h-7.007v-4.427zm0 8.219h7.007v4.428h-7.007v-4.428zm0 8.221h7.007v4.426h-7.007v-4.426zm0 8.221h7.007v4.426h-7.007v-4.426zm0 8.219h7.007v4.428h-7.007v-4.428zm0 8.22h7.007v4.427h-7.007v-4.427zm0 8.221h7.007v4.426h-7.007v-4.426zm0 8.22h7.007v4.426h-7.007v-4.426zm-20.11-180.912h7.008v4.427h-7.008v-4.427zm0 8.219h7.008v4.426h-7.008v-4.426zm0 8.22h7.008v4.427h-7.008v-4.427zm0 8.22h7.008v4.428h-7.008v-4.428zm0 8.219h7.008v4.427h-7.008v-4.427zm0 8.222h7.008v4.425h-7.008v-4.425zm0 8.219h7.008v4.426h-7.008v-4.426zm0 8.22h7.008v4.426h-7.008v-4.426zm0 8.218h7.008v4.427h-7.008v-4.427zm0 8.221h7.008v4.428h-7.008v-4.428zm0 8.22h7.008v4.428h-7.008v-4.428zm0 8.22h7.008v4.428h-7.008v-4.428zm0 8.293h7.008v4.426h-7.008v-4.426zm0 8.22h7.008v4.426h-7.008v-4.426zm0 8.22h7.008v4.428h-7.008v-4.428zm0 8.22h7.008v4.427h-7.008v-4.427zm0 8.219h7.008v4.428h-7.008v-4.428zm0 8.221h7.008v4.426h-7.008v-4.426zm0 8.221h7.008v4.426h-7.008v-4.426zm0 8.219h7.008v4.428h-7.008v-4.428zm0 8.22h7.008v4.427h-7.008v-4.427zm0 8.221h7.008v4.426h-7.008v-4.426zm0 8.22h7.008v4.426h-7.008v-4.426zm-7.334-131.593h2.928v4.426h-2.928v-4.426zm0 8.22h2.928v4.426h-2.928v-4.426zm0 8.218h2.928v4.427h-2.928v-4.427zm0 8.221h2.928v4.428h-2.928v-4.428zm0 8.22h2.928v4.428h-2.928v-4.428zm0 8.22h2.928v4.428h-2.928v-4.428zm0 8.293h2.928v4.426h-2.928v-4.426zm0 8.22h2.928v4.426h-2.928v-4.426zm0 8.22h2.928v4.428h-2.928v-4.428zm0 8.22h2.928v4.427h-2.928v-4.427zm0 8.219h2.928v4.428h-2.928v-4.428zm0 8.221h2.928v4.426h-2.928v-4.426zm0 8.221h2.928v4.426h-2.928v-4.426zm0 8.219h2.928v4.428h-2.928v-4.428zm0 8.22h2.928v4.427h-2.928v-4.427zm0 8.221h2.928v4.426h-2.928v-4.426zm0 8.22h2.928v4.426h-2.928v-4.426zm-31.252-131.593h7.008v4.426h-7.008v-4.426zm0 8.22h7.008v4.426h-7.008v-4.426zm0 8.218h7.008v4.427h-7.008v-4.427zm0 8.221h7.008v4.428h-7.008v-4.428zm0 8.22h7.008v4.428h-7.008v-4.428zm0 8.22h7.008v4.428h-7.008v-4.428zm0 8.293h7.008v4.426h-7.008v-4.426zm0 8.22h7.008v4.426h-7.008v-4.426zm0 8.22h7.008v4.428h-7.008v-4.428zm0 8.22h7.008v4.427h-7.008v-4.427zm0 8.219h7.008v4.428h-7.008v-4.428zm0 8.221h7.008v4.426h-7.008v-4.426zm0 8.221h7.008v4.426h-7.008v-4.426zm0 8.219h7.008v4.428h-7.008v-4.428zm0 8.22h7.008v4.427h-7.008v-4.427zm0 8.221h7.008v4.426h-7.008v-4.426zm0 8.22h7.008v4.426h-7.008v-4.426zm-15.581-106.934h7.008v4.428h-7.008v-4.428zm0 8.22h7.008v4.428h-7.008v-4.428zm0 8.22h7.008v4.428h-7.008v-4.428zm0 8.293h7.008v4.426h-7.008v-4.426zm0 8.22h7.008v4.426h-7.008v-4.426zm0 16.44h7.008v4.427h-7.008v-4.427zm0 8.219h7.008v4.428h-7.008v-4.428zm0 8.221h7.008v4.426h-7.008v-4.426zm0 8.221h7.008v4.426h-7.008v-4.426zm0 8.219h7.008v4.428h-7.008v-4.428zm0 8.22h7.008v4.427h-7.008v-4.427zm0 8.221h7.008v4.426h-7.008v-4.426zm0 8.22h7.008v4.426h-7.008v-4.426zm-51.125-15.472-1.671-1.565 1.671-1.567v3.132zm-7.281.642h-2.761l1.381-1.296 1.38 1.296zm-3.212-4.751h3.664l-1.832 1.719-1.832-1.719zm2.758 2.586 2.13-1.997 2.083 1.955-2.13 1.997-2.083-1.955zm3.354-2.586h3.57l-1.784 1.675-1.786-1.675zm1.785 3.412 1.426 1.339h-2.854l1.428-1.339zm32.853 43.295h-20.967v-2.616h-2.517V544.95h5.674a.648.648 0 0 0 .284 0h5.735c.095.021.19.021.285 0h5.827a.653.653 0 0 0 .285 0h5.393v40.691zm-22.509-46.707h3.572l-1.786 1.675-1.786-1.675zm3.213 4.751h-2.854l1.427-1.339 1.427 1.339zm-2.352-2.207-1.835 1.72v-3.441l1.835 1.721zm17.291-2.544h3.664l-1.832 1.719-1.832-1.719zm3.212 4.751h-2.762l1.381-1.296 1.381 1.296zm-2.307-2.165-2.083 1.955-2.131-1.997 2.085-1.955 2.129 1.997zm-3.712 2.165h-2.854l1.427-1.339 1.427 1.339zm-1.427-3.077-1.785-1.675h3.57l-1.785 1.675zm-.926.87-2.13 1.997-2.085-1.955 2.131-1.997 2.084 1.955zm-5.14-.826-1.831-1.719h3.663l-1.832 1.719zm0 1.737 1.381 1.296h-2.761l1.38-1.296zm14.657.631-1.6-1.5 1.6-1.5v3zm12.295 19.92h-7.009v-4.426h7.009v4.426zm0-8.219h-7.009v-4.426h7.009v4.426zm0-8.22h-7.009v-4.427h7.009v4.427zm-11.46-47.851c.808.859 1.622 1.706 2.449 2.532 4.207 4.212 8.543 7.81 13.021 10.844v25.642h-15.47V498.65zm-18.508-24.108c5.527 8.385 11.37 16.349 17.769 23.297v39.829h-17.769v-63.126zm2.091 66.978-2.085 1.955-2.131-1.997 2.085-1.955 2.131 1.997zm-13.38-85.072c3.435 5.703 6.927 11.412 10.549 16.958v64.262h-5.07v-28.875c0-1.457-1.037-2.672-2.37-2.95v-30.9c0-1.33-1.018-2.222-2.347-2.222h-.762v-16.273zm-10.364-1.735c0-.914.921-1.389 1.836-1.389h2.693c.914 0 1.577.475 1.577 1.389v18.008h-6.107v-18.008zm-1.629 24.892c0-1.33 1.196-2.295 2.525-2.295h4.573c1.33 0 2.267.965 2.267 2.295v26.279h-9.365v-26.279zm-1.333 35.053c0-1.661 1.444-2.85 3.105-2.85h6.078c1.662 0 2.847 1.188 2.847 2.85v23.01h-12.03v-23.01zm0 25.159.314-.295 2.13 1.997-2.084 1.955-.36-.338v-3.319zm0 5.133h.218a.653.653 0 0 0 .285 0h5.733a.628.628 0 0 0 .286 0h5.509v38.074h-2.665v2.616h-6.849v-2.616h-2.517V544.95zm-173.193-1.265h-.754l.754-.708v.708zm-6.318-2.165-2.084 1.955-2.13-1.997 2.083-1.955 2.131 1.997zm-.906-2.586h3.663l-1.831 1.719-1.832-1.719zm1.832 3.455 1.381 1.296h-2.761l1.38-1.296zm.925-.869 2.131-1.997 2.084 1.955-2.13 1.997-2.085-1.955zm4.467-1.543-1.112-1.043h1.112v1.043zm166.42 43.047h-2.666v2.616H103.24l-50.24.493v-3.108h-2.517V544.95h2.832a.62.62 0 0 0 .284 0h5.828a.648.648 0 0 0 .284 0h5.734c.095.021.19.021.285 0h5.829a.644.644 0 0 0 .283 0h5.734a.624.624 0 0 0 .285 0h5.826c.095.022.19.022.285 0h5.735a.624.624 0 0 0 .285 0h5.826c.096.022.19.022.286 0h5.733c.094.022.19.022.285 0h5.827c.095.022.19.022.285 0h5.734a.648.648 0 0 0 .284 0h5.828a.653.653 0 0 0 .285 0h5.733c.095.022.19.022.286 0h5.827c.095.022.19.022.285 0h5.735a.648.648 0 0 0 .284 0h5.826c.096.022.19.022.285 0h5.736a.643.643 0 0 0 .283 0h5.828a.648.648 0 0 0 .284 0h5.735c.095.021.19.021.284 0h5.828c.095.021.19.021.284 0h5.735a.62.62 0 0 0 .284 0h5.828a.648.648 0 0 0 .284 0h5.734a.624.624 0 0 0 .285 0h5.827a.624.624 0 0 0 .285 0h5.733a.653.653 0 0 0 .285 0h5.828c.095.021.19.021.284 0h4.855v38.074zm-3.818-44.09h3.663l-1.831 1.719-1.832-1.719zm3.211 4.751h-2.761l1.381-1.296 1.38 1.296zm-2.306-2.165-2.085 1.955-2.13-1.997 2.084-1.955 2.131 1.997zm-3.713 2.165h-2.854l1.428-1.339 1.426 1.339zm.259-4.658-1.686 1.581-1.786-1.675h3.472v.094zm-2.612 2.451-2.13 1.997-2.084-1.953 2.131-1.999 2.083 1.955zm-3.759 2.207h-2.759l1.379-1.296 1.38 1.296zm-1.38-3.033-1.831-1.719h3.664l-1.833 1.719zm-.925.869-2.083 1.953-2.131-1.997 2.083-1.955 2.131 1.999zm-3.712 2.164h-2.854l1.426-1.339 1.428 1.339zm-1.428-3.077-1.784-1.675h3.569l-1.785 1.675zm-.925.87-2.13 1.997-2.083-1.955 2.13-1.997 2.083 1.955zm-3.759 2.207h-2.761l1.38-1.296 1.381 1.296zm-4.389-.21-2.13-1.997 2.083-1.955 2.13 1.999-2.083 1.953zm-1.63.21h-2.854l1.428-1.339 1.426 1.339zm-1.426-3.077-1.786-1.675h3.569l-1.783 1.675zm-.926.87-2.13 1.997-2.083-1.955 2.129-1.997 2.084 1.955zm-3.76 2.207h-2.761l1.381-1.296 1.38 1.296zm-1.38-3.033-1.832-1.719h3.664l-1.832 1.719zm-.925.868-2.084 1.955-2.131-1.997 2.085-1.955 2.13 1.997zm-3.713 2.165h-2.854l1.427-1.339 1.427 1.339zm-4.483-.21-2.084-1.955 2.13-1.997 2.085 1.955-2.131 1.997zm-1.629.21h-2.761l1.38-1.296 1.381 1.296zm-1.381-3.033-1.83-1.719h3.662l-1.832 1.719zm-.925.868-2.084 1.955-2.13-1.997 2.083-1.955 2.131 1.997zm-3.714 2.165h-2.853l1.427-1.339 1.426 1.339zm-1.426-3.077-1.785-1.675h3.571l-1.786 1.675zm-.926.87-2.13 1.997-2.084-1.955 2.13-1.997 2.084 1.955zm-3.759 2.207h-2.762l1.381-1.296 1.381 1.296zm-4.39-.21-2.131-1.997 2.084-1.955 2.131 1.997-2.084 1.955zm-1.629.21h-2.854l1.428-1.339 1.426 1.339zm-1.427-3.077-1.786-1.675h3.571l-1.785 1.675zm-.925.87-2.131 1.997-2.083-1.955 2.131-1.997 2.083 1.955zm-3.76 2.207h-2.761l1.38-1.296 1.381 1.296zm-1.381-3.033-1.831-1.719h3.663l-1.832 1.719zm-.924.868-2.084 1.955-2.131-1.997 2.084-1.955 2.131 1.997zm-3.713 2.165h-2.854l1.427-1.339 1.427 1.339zm-4.483-.21-2.083-1.955 2.13-1.997 2.083 1.955-2.13 1.997zm-1.629.21h-2.761l1.38-1.296 1.381 1.296zm-1.381-3.033-1.831-1.719h3.663l-1.832 1.719zm-.925.868-2.084 1.955-2.13-1.997 2.085-1.955 2.129 1.997zm-3.713 2.165h-2.854l1.426-1.339 1.428 1.339zm-1.428-3.077-1.785-1.675h3.571l-1.786 1.675zm-.925.87-2.13 1.997-2.084-1.955 2.13-1.997 2.084 1.955zm-3.758 2.207h-2.762l1.381-1.296 1.381 1.296zm-4.391-.21-2.13-1.997 2.084-1.955 2.129 1.997-2.083 1.955zm-1.629.21h-2.854l1.428-1.339 1.426 1.339zm-1.425-3.077-1.786-1.675h3.57l-1.784 1.675zm-.927.87-2.13 1.997-2.084-1.955 2.13-1.997 2.084 1.955zm-3.759 2.207h-2.761l1.381-1.296 1.38 1.296zm-1.38-3.033-1.832-1.719h3.663l-1.831 1.719zm-.926.868-2.084 1.955-2.13-1.997 2.083-1.955 2.131 1.997zm-3.712 2.165h-2.854l1.428-1.339 1.426 1.339zm-4.484-.21-2.083-1.955 2.131-1.997 2.083 1.955-2.131 1.997zm-1.628.21h-2.761l1.381-1.296 1.38 1.296zm-1.381-3.033-1.831-1.719h3.663l-1.832 1.719zm-.925.868-2.084 1.955-2.131-1.997 2.084-1.955 2.131 1.997zm-3.713 2.165h-2.854l1.428-1.339 1.426 1.339zm-1.427-3.077-1.785-1.675h3.571l-1.786 1.675zm-.925.87-2.131 1.997-2.083-1.953 2.13-1.999 2.084 1.955zm-3.76 2.207h-2.761l1.381-1.296 1.38 1.296zm-4.389-.21-2.13-1.997 2.084-1.955 2.13 1.997-2.084 1.955zm-1.629.21h-2.854l1.427-1.339 1.427 1.339zm-1.427-3.077-1.785-1.675h3.571l-1.786 1.675zm-.926.87-2.13 1.997-2.083-1.953 2.13-1.999 2.083 1.955zm-3.759 2.207h-2.761l1.38-1.296 1.381 1.296zm-1.381-3.033-1.831-1.719h3.664l-1.833 1.719zm-.924.868-2.084 1.955-2.13-1.997 2.084-1.955 2.13 1.997zm-3.713 2.165h-2.854l1.428-1.339 1.426 1.339zm-4.483-.21-2.083-1.953 2.131-1.999 2.083 1.955-2.131 1.997zm-2.974-2.856v-1.686h1.796l-1.796 1.686zm1.345 3.066h-1.345v-1.263l1.345 1.263zm158.302-1.169-1.062-.996 1.062-.996v1.992zm-5.627-70.691c3.813-5.907 7.483-11.978 11.104-18.012v18.907h-.503c-1.329 0-2.458.892-2.458 2.222v30.9c-1.479.278-2.516 1.493-2.516 2.95v28.875h-5.627v-65.842zm-18.654 25.045c6.45-7.156 12.336-15.336 17.915-23.906v64.704h-17.915V496.87zm-1.967 43.782-1.832-1.719h3.057v.414h.166l-1.391 1.305zm-16.542-27.668c4.984-3.219 9.79-7.145 14.438-11.802a114.214 114.214 0 0 0 3.329-3.498v39.983h-17.767v-24.683zm0 25.95h.131l-.131.123v-.123zm-1.653 1.674-1.785-1.675h2.699v.414h.43l-1.344 1.261zm-16.854-19.169c6.184-1.755 12.093-4.41 17.768-7.981v24.21h-17.768v-16.229zm0 17.495h.489l-1.831 1.719-1.832-1.719h2.434v.414h.74v-.414zm-18.507-14.915c6.173-.046 12.086-.834 17.767-2.376v16.025h-17.767v-13.649zm0 15.329v-.414h.754l-1.785 1.675-1.785-1.675h2.075v.414h.741zm-18.36-17.544c5.636 1.474 11.499 2.208 17.618 2.221v13.644h-17.618v-15.865zm0 17.13h.964l-1.831 1.719-1.832-1.719h1.958v.414h.741v-.414zM93.31 513.729c5.721 3.545 11.679 6.163 17.915 7.871v16.068H93.31v-23.939zm0 25.205h1.377l-1.784 1.675-1.786-1.675h1.452v.414h.74v-.414zM75.247 498.65c.807.859 1.622 1.706 2.447 2.532 4.787 4.793 9.735 8.815 14.875 12.087v24.398H75.247V498.65zm0 40.284h1.293l-1.832 1.719-1.833-1.719h1.63v.414h.741v-.414zm-18.805-64.845c5.615 8.548 11.551 16.676 18.063 23.75v39.829H56.442v-63.579zm0 64.845h1.854l-1.785 1.675-1.786-1.675h.976v.414h.74v-.414zm-11.437-83.225c3.484 5.791 7.025 11.598 10.697 17.241v64.718h-5.22v-28.875c0-1.457-1.036-2.672-2.369-2.95v-30.9c0-1.33-1.066-2.222-2.395-2.222h-.714v-17.012zm-10.365-.996c0-.914.875-1.389 1.788-1.389h2.694c.915 0 1.625.475 1.625 1.389v18.008H34.64v-18.008zm-1.628 24.892c0-1.33 1.147-2.295 2.477-2.295h4.574c1.329 0 2.314.965 2.314 2.295v26.279h-9.365v-26.279zm-1.332 35.053c0-1.661 1.395-2.85 3.057-2.85h6.079c1.661 0 2.894 1.188 2.894 2.85v23.01H31.68v-23.01zm0 24.276h2.356l-1.785 1.675-.571-.536v-1.139zm0 3.948.571-.536 1.428 1.339H31.68v-.803zm0 2.068h3.486a.624.624 0 0 0 .285 0h5.733a.624.624 0 0 0 .285 0h2.241v38.074h-2.665v3.226l-6.848.067v-3.293H31.68V544.95zm-6.773-5.499-.551-.518h.551v.518zm-5.48-67.17c3.761-5.81 7.386-11.783 10.956-17.729v18.168h-.55c-1.329 0-2.409.892-2.409 2.222v30.9c-1.482.278-2.517 1.493-2.517 2.95v28.875h-5.479v-65.386zm0 67.067v-.414h2.479l-1.784 1.675-1.345-1.261h.65zM.92 497.032c6.393-7.069 12.233-15.145 17.767-23.614v64.25H.92v-40.636zm17.768 41.902v.33l-.352-.33h.352zm-2.799 0-1.832 1.719-1.832-1.719h3.664zm-6.112 0-1.786 1.675-1.784-1.675h3.57zm-8.857.414v-.414h2.838l-1.831 1.719-1.391-1.305H.92zm-.741-.414v.079l-.084-.079h.084zm-1.261 4.541-2.131-1.997 2.083-1.955L1 541.521l-2.082 1.954zm1.628.21 1.381-1.296 1.38 1.296H.546zm4.391-.21-2.084-1.955 2.13-1.997 2.083 1.955-2.129 1.997zm1.628.21 1.426-1.339 1.428 1.339H6.565zm4.483-.21-2.131-1.997 2.084-1.955 2.13 1.999-2.083 1.953zm1.629.21 1.379-1.296 1.38 1.296h-2.759zm4.389-.21-2.084-1.955 2.131-1.997 2.083 1.955-2.13 1.997zm1.629.21 1.428-1.339 1.426 1.339h-2.854zm4.482-.21-2.13-1.997 2.084-1.955 1.775 1.664v.666l-1.729 1.622zm1.629.21.101-.095v.095h-.101z"/><defs><filter id="a" filterUnits="userSpaceOnUse" x="-35.229" y="621.546" width="1455.055" height="478.761"><feColorMatrix values="1 0 0 0 0 0 1 0 0 0 0 0 1 0 0 0 0 0 1 0"/></filter></defs><path fill="#FFF" d="M2215.916 102.25h-644.659c-10.94 0-19.811 8.869-19.811 19.81v268.081l-62.03 19.924 62.03 18.008v186.82c0 10.939 8.87 19.809 19.811 19.809h644.659c10.94 0 19.811-8.869 19.811-19.809V122.06c0-10.941-8.871-19.81-19.811-19.81z"/><path fill="none" d="M1626.073 157.628h548v448.503h-548z"/><text transform="translate(1626.073 174.668)"><tspan x="0" y="0" fill="#333" font-family="'MyriadPro-Regular'" font-size="24">This design was made by vexels.com. Its under CC 3.0 </tspan><tspan x="0" y="28.801" fill="#333" font-family="'MyriadPro-Regular'" font-size="24">Attribution License. This means that for free use you </tspan><tspan x="0" y="57.6" fill="#333" font-family="'MyriadPro-Regular'" font-size="24">must give credit and cant do merchandise items. You </tspan><tspan x="0" y="86.4" fill="#333" font-family="'MyriadPro-Regular'" font-size="24">can only do commercial and merchandise items </tspan><tspan x="0" y="115.201" fill="#333" font-family="'MyriadPro-Regular'" font-size="24">without credit if you get a license. Learn more on </tspan><tspan x="0" y="144" fill="#C64B09" font-family="'MyriadPro-Regular'" font-size="24">www.vexels.com/plans</tspan><tspan x="0" y="201.6" fill="#333" font-family="'MyriadPro-Regular'" font-size="24">You cant sublicense, redistribute or resell an image or </tspan><tspan x="0" y="230.4" fill="#333" font-family="'MyriadPro-Regular'" font-size="24">part of it. You can only use our contents for products </tspan><tspan x="0" y="259.201" fill="#333" font-family="'MyriadPro-Regular'" font-size="24">where the design is the main reason its being </tspan><tspan x="0" y="288" fill="#333" font-family="'MyriadPro-Regular'" font-size="24">purchased if you get a license. Learn more on </tspan><tspan x="0" y="316.801" fill="#C64B09" font-family="'MyriadPro-Regular'" font-size="24">www.vexels.com/terms-and-conditions</tspan><tspan x="0" y="374.4" fill="#333" font-family="'MyriadPro-Regular'" font-size="24">Thanks!</tspan><tspan x="0" y="403.201" fill="#333" font-family="'MyriadPro-Regular'" font-size="24">Vexels Team</tspan></text></svg>