<svg width="489" height="234" viewBox="0 0 489 234" fill="none" xmlns="http://www.w3.org/2000/svg">
<rect x="10" y="26" width="159" height="155" fill="#F9F4F4" stroke="black" stroke-width="4"/>
<rect x="169" y="26" width="159" height="155" fill="#F9F4F4" stroke="black" stroke-width="4"/>
<rect x="328" y="26" width="159" height="206" fill="#F9F4F4" stroke="black" stroke-width="4"/>
<path d="M52.2499 50.6562C51.4374 49.125 51.9842 47.9375 53.8905 47.0938C55.703 46.2812 57.5936 45.1406 59.5624 43.6719C61.5311 42.2031 63.1405 40.6875 64.3905 39.125C65.7967 37.375 67.1405 36.5 68.4217 36.5H75.8749C77.7499 36.5 78.6874 37.4375 78.6874 39.3125V101.188C78.6874 103.062 77.7499 104 75.8749 104H68.3749C66.4999 104 65.5624 103.062 65.5624 101.188V56.6094C65.5624 55.3594 65.6249 54.1094 65.7499 52.8594H65.5624C64.5936 54.0781 63.5311 55.125 62.3749 56C61.2186 56.875 60.0467 57.5625 58.8592 58.0625C57.3905 58.6875 56.2811 58.2812 55.5311 56.8438L52.2499 50.6562ZM93.2655 48.9688C91.2342 48.9688 90.2186 47.9531 90.2186 45.9219V40.3906C90.2186 38.3594 91.2342 37.3438 93.2655 37.3438H131.515C133.547 37.3438 134.562 38.3594 134.562 40.3906V45.6875C134.562 47.2812 133.781 48.9531 132.219 50.7031C125.812 57.9219 121.328 65.125 118.765 72.3125C116.203 79.5 114.922 88.1719 114.922 98.3281V101.234C114.922 103.266 113.906 104.281 111.875 104.281H104.844C102.812 104.281 101.797 103.266 101.797 101.234V99.9688C101.797 88.6875 103.656 79.2031 107.375 71.5156C111.125 63.8281 116.094 56.3125 122.281 48.9688V48.7812C121.031 48.9062 119.781 48.9688 118.531 48.9688H93.2655Z" fill="black"/>
<path d="M67.8494 146.727C67.8494 151.803 66.8873 156.121 64.9631 159.682C63.054 163.242 60.4479 165.962 57.1449 167.841C53.857 169.705 50.16 170.636 46.054 170.636C41.9176 170.636 38.2055 169.697 34.9176 167.818C31.6297 165.939 29.0313 163.22 27.1222 159.659C25.2131 156.098 24.2585 151.788 24.2585 146.727C24.2585 141.652 25.2131 137.333 27.1222 133.773C29.0313 130.212 31.6297 127.5 34.9176 125.636C38.2055 123.758 41.9176 122.818 46.054 122.818C50.16 122.818 53.857 123.758 57.1449 125.636C60.4479 127.5 63.054 130.212 64.9631 133.773C66.8873 137.333 67.8494 141.652 67.8494 146.727ZM57.8722 146.727C57.8722 143.439 57.3797 140.667 56.3949 138.409C55.4252 136.152 54.054 134.439 52.2812 133.273C50.5085 132.106 48.4328 131.523 46.054 131.523C43.6752 131.523 41.5994 132.106 39.8267 133.273C38.054 134.439 36.6752 136.152 35.6903 138.409C34.7206 140.667 34.2358 143.439 34.2358 146.727C34.2358 150.015 34.7206 152.788 35.6903 155.045C36.6752 157.303 38.054 159.015 39.8267 160.182C41.5994 161.348 43.6752 161.932 46.054 161.932C48.4328 161.932 50.5085 161.348 52.2812 160.182C54.054 159.015 55.4252 157.303 56.3949 155.045C57.3797 152.788 57.8722 150.015 57.8722 146.727ZM116.207 139.75H106.253C106.071 138.462 105.7 137.318 105.139 136.318C104.579 135.303 103.859 134.439 102.98 133.727C102.101 133.015 101.086 132.47 99.9347 132.091C98.7983 131.712 97.5634 131.523 96.2301 131.523C93.821 131.523 91.7225 132.121 89.9347 133.318C88.1468 134.5 86.7604 136.227 85.7756 138.5C84.7907 140.758 84.2983 143.5 84.2983 146.727C84.2983 150.045 84.7907 152.833 85.7756 155.091C86.7756 157.348 88.1695 159.053 89.9574 160.205C91.7453 161.356 93.8134 161.932 96.1619 161.932C97.4801 161.932 98.6998 161.758 99.821 161.409C100.957 161.061 101.965 160.553 102.844 159.886C103.723 159.205 104.45 158.379 105.026 157.409C105.616 156.439 106.026 155.333 106.253 154.091L116.207 154.136C115.95 156.273 115.306 158.333 114.276 160.318C113.26 162.288 111.889 164.053 110.162 165.614C108.45 167.159 106.404 168.386 104.026 169.295C101.662 170.189 98.9877 170.636 96.0028 170.636C91.8513 170.636 88.1392 169.697 84.8665 167.818C81.6089 165.939 79.0331 163.22 77.1392 159.659C75.2604 156.098 74.321 151.788 74.321 146.727C74.321 141.652 75.2756 137.333 77.1847 133.773C79.0938 130.212 81.6847 127.5 84.9574 125.636C88.2301 123.758 91.9119 122.818 96.0028 122.818C98.6998 122.818 101.2 123.197 103.503 123.955C105.821 124.712 107.874 125.818 109.662 127.273C111.45 128.712 112.904 130.477 114.026 132.568C115.162 134.659 115.889 137.053 116.207 139.75ZM121.491 131.568V123.455H159.719V131.568H145.469V170H135.741V131.568H121.491Z" fill="black"/>
<path d="M225.803 35.0909V70H219.428L204.241 48.0284H203.985V70H196.604V35.0909H203.082L218.15 57.0455H218.457V35.0909H225.803ZM243.594 70.5114C240.947 70.5114 238.657 69.9489 236.725 68.8239C234.805 67.6875 233.322 66.108 232.276 64.0852C231.231 62.0511 230.708 59.6932 230.708 57.0114C230.708 54.3068 231.231 51.9432 232.276 49.9205C233.322 47.8864 234.805 46.3068 236.725 45.1818C238.657 44.0455 240.947 43.4773 243.594 43.4773C246.242 43.4773 248.526 44.0455 250.447 45.1818C252.379 46.3068 253.867 47.8864 254.913 49.9205C255.958 51.9432 256.481 54.3068 256.481 57.0114C256.481 59.6932 255.958 62.0511 254.913 64.0852C253.867 66.108 252.379 67.6875 250.447 68.8239C248.526 69.9489 246.242 70.5114 243.594 70.5114ZM243.629 64.8864C244.833 64.8864 245.839 64.5455 246.646 63.8636C247.452 63.1705 248.06 62.2273 248.469 61.0341C248.89 59.8409 249.1 58.483 249.1 56.9602C249.1 55.4375 248.89 54.0795 248.469 52.8864C248.06 51.6932 247.452 50.75 246.646 50.0568C245.839 49.3636 244.833 49.017 243.629 49.017C242.413 49.017 241.39 49.3636 240.56 50.0568C239.742 50.75 239.123 51.6932 238.702 52.8864C238.293 54.0795 238.089 55.4375 238.089 56.9602C238.089 58.483 238.293 59.8409 238.702 61.0341C239.123 62.2273 239.742 63.1705 240.56 63.8636C241.39 64.5455 242.413 64.8864 243.629 64.8864ZM294.011 35.0909H301.391V57.7614C301.391 60.3068 300.783 62.5341 299.567 64.4432C298.363 66.3523 296.675 67.8409 294.505 68.9091C292.335 69.9659 289.806 70.4943 286.92 70.4943C284.022 70.4943 281.488 69.9659 279.317 68.9091C277.147 67.8409 275.46 66.3523 274.255 64.4432C273.05 62.5341 272.448 60.3068 272.448 57.7614V35.0909H279.829V57.1307C279.829 58.4602 280.119 59.642 280.698 60.6761C281.289 61.7102 282.119 62.5227 283.187 63.1136C284.255 63.7045 285.499 64 286.92 64C288.352 64 289.596 63.7045 290.653 63.1136C291.721 62.5227 292.545 61.7102 293.124 60.6761C293.715 59.642 294.011 58.4602 294.011 57.1307V35.0909Z" fill="black"/>
<path d="M282 104L277 109L257 89C252 84 242 84 237 89L247 99L267 119L262 124L282 124L282 104Z" fill="black"/>
<path d="M217 104L222 99L242 119C247 124 257 124 262 119L252 109L232 89L237 84L217 84L217 104Z" fill="black"/>
<path d="M218.567 144H216.26L219.775 133.818H222.549L226.059 144H223.752L221.202 136.145H221.122L218.567 144ZM218.422 139.998H223.871V141.678H218.422V139.998ZM229.362 133.818V144H227.245V133.818H229.362ZM233.177 133.818V144H231.059V133.818H233.177ZM238.153 144V133.818H242.171C242.939 133.818 243.596 133.956 244.139 134.231C244.686 134.503 245.102 134.889 245.387 135.389C245.676 135.886 245.82 136.471 245.82 137.144C245.82 137.82 245.674 138.402 245.382 138.889C245.091 139.373 244.668 139.744 244.114 140.003C243.564 140.261 242.898 140.391 242.116 140.391H239.426V138.661H241.768C242.179 138.661 242.52 138.604 242.792 138.491C243.064 138.379 243.266 138.21 243.399 137.984C243.534 137.759 243.602 137.479 243.602 137.144C243.602 136.806 243.534 136.521 243.399 136.289C243.266 136.057 243.062 135.881 242.787 135.762C242.515 135.639 242.172 135.578 241.758 135.578H240.306V144H238.153ZM243.652 139.366L246.183 144H243.806L241.33 139.366H243.652ZM247.301 144V136.364H249.419V144H247.301ZM248.365 135.379C248.05 135.379 247.78 135.275 247.555 135.066C247.333 134.854 247.222 134.6 247.222 134.305C247.222 134.014 247.333 133.763 247.555 133.555C247.78 133.343 248.05 133.237 248.365 133.237C248.68 133.237 248.948 133.343 249.171 133.555C249.396 133.763 249.509 134.014 249.509 134.305C249.509 134.6 249.396 134.854 249.171 135.066C248.948 135.275 248.68 135.379 248.365 135.379ZM254.556 147.023C253.87 147.023 253.282 146.928 252.791 146.739C252.304 146.554 251.916 146.3 251.628 145.979C251.339 145.657 251.152 145.296 251.066 144.895L253.025 144.631C253.084 144.784 253.179 144.926 253.308 145.059C253.437 145.192 253.608 145.298 253.82 145.377C254.036 145.46 254.297 145.501 254.606 145.501C255.066 145.501 255.446 145.389 255.744 145.163C256.046 144.941 256.197 144.568 256.197 144.045V142.648H256.107C256.014 142.86 255.875 143.06 255.69 143.249C255.504 143.438 255.265 143.592 254.974 143.712C254.682 143.831 254.334 143.891 253.93 143.891C253.356 143.891 252.834 143.758 252.364 143.493C251.896 143.224 251.523 142.815 251.245 142.265C250.97 141.711 250.832 141.012 250.832 140.167C250.832 139.302 250.973 138.579 251.255 137.999C251.537 137.419 251.911 136.985 252.378 136.697C252.849 136.408 253.364 136.264 253.925 136.264C254.352 136.264 254.71 136.337 254.998 136.483C255.287 136.625 255.519 136.804 255.695 137.02C255.873 137.232 256.011 137.441 256.107 137.646H256.187V136.364H258.29V144.075C258.29 144.724 258.131 145.268 257.812 145.705C257.494 146.143 257.053 146.471 256.49 146.69C255.93 146.912 255.285 147.023 254.556 147.023ZM254.601 142.3C254.942 142.3 255.23 142.215 255.466 142.046C255.704 141.874 255.887 141.629 256.013 141.31C256.142 140.989 256.207 140.604 256.207 140.157C256.207 139.71 256.144 139.322 256.018 138.994C255.892 138.662 255.709 138.405 255.471 138.223C255.232 138.041 254.942 137.95 254.601 137.95C254.253 137.95 253.959 138.044 253.721 138.233C253.482 138.419 253.302 138.677 253.179 139.009C253.056 139.34 252.995 139.723 252.995 140.157C252.995 140.598 253.056 140.979 253.179 141.3C253.305 141.619 253.485 141.866 253.721 142.041C253.959 142.214 254.253 142.3 254.601 142.3ZM262.093 139.585V144H259.975V133.818H262.033V137.711H262.123C262.295 137.26 262.574 136.907 262.958 136.652C263.342 136.393 263.825 136.264 264.405 136.264C264.935 136.264 265.397 136.38 265.792 136.612C266.19 136.841 266.498 137.171 266.717 137.602C266.939 138.029 267.048 138.541 267.045 139.138V144H264.927V139.516C264.93 139.045 264.811 138.679 264.569 138.417C264.33 138.155 263.995 138.024 263.565 138.024C263.276 138.024 263.021 138.085 262.799 138.208C262.58 138.331 262.408 138.51 262.282 138.745C262.159 138.977 262.096 139.257 262.093 139.585ZM272.773 136.364V137.955H268.174V136.364H272.773ZM269.218 134.534H271.336V141.653C271.336 141.849 271.366 142.001 271.426 142.111C271.486 142.217 271.568 142.291 271.674 142.335C271.784 142.378 271.91 142.399 272.052 142.399C272.152 142.399 272.251 142.391 272.351 142.374C272.45 142.354 272.526 142.339 272.579 142.33L272.912 143.906C272.806 143.939 272.657 143.977 272.465 144.02C272.273 144.066 272.039 144.094 271.764 144.104C271.254 144.124 270.806 144.056 270.422 143.901C270.04 143.745 269.744 143.503 269.532 143.175C269.32 142.847 269.215 142.432 269.218 141.932V134.534ZM280.411 138.541L278.472 138.661C278.439 138.495 278.367 138.346 278.258 138.213C278.149 138.077 278.005 137.969 277.826 137.89C277.65 137.807 277.439 137.766 277.194 137.766C276.866 137.766 276.589 137.835 276.364 137.974C276.139 138.11 276.026 138.293 276.026 138.521C276.026 138.704 276.099 138.858 276.245 138.984C276.39 139.11 276.641 139.211 276.995 139.287L278.377 139.565C279.12 139.718 279.673 139.963 280.038 140.301C280.402 140.639 280.585 141.083 280.585 141.634C280.585 142.134 280.437 142.573 280.142 142.951C279.851 143.329 279.45 143.624 278.939 143.836C278.432 144.045 277.847 144.149 277.184 144.149C276.173 144.149 275.368 143.939 274.768 143.518C274.171 143.094 273.822 142.517 273.719 141.788L275.802 141.678C275.865 141.987 276.018 142.222 276.259 142.384C276.501 142.543 276.811 142.623 277.189 142.623C277.56 142.623 277.859 142.552 278.084 142.409C278.313 142.263 278.429 142.076 278.432 141.847C278.429 141.655 278.348 141.498 278.188 141.375C278.029 141.249 277.784 141.153 277.453 141.087L276.13 140.823C275.384 140.674 274.829 140.415 274.465 140.048C274.103 139.68 273.923 139.211 273.923 138.641C273.923 138.15 274.055 137.728 274.321 137.373C274.589 137.018 274.965 136.745 275.449 136.553C275.936 136.36 276.506 136.264 277.159 136.264C278.124 136.264 278.883 136.468 279.436 136.876C279.993 137.283 280.318 137.839 280.411 138.541ZM217.181 161V150.818H221.198C221.967 150.818 222.623 150.956 223.167 151.231C223.714 151.503 224.129 151.889 224.415 152.389C224.703 152.886 224.847 153.471 224.847 154.144C224.847 154.82 224.701 155.402 224.41 155.889C224.118 156.373 223.695 156.744 223.142 157.003C222.592 157.261 221.925 157.391 221.143 157.391H218.454V155.661H220.795C221.206 155.661 221.548 155.604 221.819 155.491C222.091 155.379 222.293 155.21 222.426 154.984C222.562 154.759 222.63 154.479 222.63 154.144C222.63 153.806 222.562 153.521 222.426 153.289C222.293 153.057 222.089 152.881 221.814 152.762C221.543 152.639 221.2 152.578 220.785 152.578H219.334V161H217.181ZM222.679 156.366L225.21 161H222.834L220.358 156.366H222.679ZM229.686 161.149C228.9 161.149 228.224 160.99 227.657 160.672C227.094 160.35 226.66 159.896 226.355 159.31C226.05 158.72 225.897 158.022 225.897 157.217C225.897 156.431 226.05 155.742 226.355 155.148C226.66 154.555 227.089 154.093 227.642 153.761C228.199 153.43 228.852 153.264 229.601 153.264C230.105 153.264 230.574 153.345 231.008 153.508C231.446 153.667 231.827 153.907 232.152 154.229C232.48 154.55 232.735 154.955 232.917 155.442C233.099 155.926 233.191 156.492 233.191 157.142V157.724H226.742V156.411H231.197C231.197 156.106 231.131 155.836 230.998 155.601C230.866 155.366 230.682 155.182 230.446 155.049C230.214 154.913 229.944 154.845 229.636 154.845C229.314 154.845 229.029 154.92 228.781 155.069C228.536 155.215 228.343 155.412 228.204 155.661C228.065 155.906 227.994 156.179 227.99 156.481V157.729C227.99 158.107 228.06 158.433 228.199 158.708C228.342 158.983 228.542 159.195 228.801 159.344C229.059 159.494 229.366 159.568 229.72 159.568C229.956 159.568 230.171 159.535 230.367 159.469C230.562 159.402 230.73 159.303 230.869 159.17C231.008 159.038 231.114 158.875 231.187 158.683L233.146 158.812C233.046 159.283 232.843 159.694 232.534 160.045C232.229 160.393 231.835 160.665 231.351 160.861C230.871 161.053 230.315 161.149 229.686 161.149ZM241.487 153.364L238.817 161H236.431L233.761 153.364H235.998L237.584 158.827H237.664L239.245 153.364H241.487ZM245.805 161.149C245.019 161.149 244.343 160.99 243.776 160.672C243.213 160.35 242.779 159.896 242.474 159.31C242.169 158.72 242.016 158.022 242.016 157.217C242.016 156.431 242.169 155.742 242.474 155.148C242.779 154.555 243.208 154.093 243.761 153.761C244.318 153.43 244.971 153.264 245.72 153.264C246.224 153.264 246.693 153.345 247.127 153.508C247.565 153.667 247.946 153.907 248.271 154.229C248.599 154.55 248.854 154.955 249.036 155.442C249.219 155.926 249.31 156.492 249.31 157.142V157.724H242.862V156.411H247.316C247.316 156.106 247.25 155.836 247.117 155.601C246.985 155.366 246.801 155.182 246.565 155.049C246.333 154.913 246.063 154.845 245.755 154.845C245.434 154.845 245.149 154.92 244.9 155.069C244.655 155.215 244.462 155.412 244.323 155.661C244.184 155.906 244.113 156.179 244.109 156.481V157.729C244.109 158.107 244.179 158.433 244.318 158.708C244.461 158.983 244.661 159.195 244.92 159.344C245.178 159.494 245.485 159.568 245.84 159.568C246.075 159.568 246.29 159.535 246.486 159.469C246.681 159.402 246.849 159.303 246.988 159.17C247.127 159.038 247.233 158.875 247.306 158.683L249.265 158.812C249.166 159.283 248.962 159.694 248.653 160.045C248.349 160.393 247.954 160.665 247.47 160.861C246.99 161.053 246.435 161.149 245.805 161.149ZM250.692 161V153.364H252.745V154.696H252.825C252.964 154.222 253.198 153.864 253.526 153.622C253.854 153.377 254.232 153.254 254.659 153.254C254.765 153.254 254.88 153.261 255.002 153.274C255.125 153.287 255.233 153.306 255.325 153.329V155.208C255.226 155.178 255.088 155.152 254.913 155.129C254.737 155.105 254.576 155.094 254.43 155.094C254.119 155.094 253.841 155.162 253.595 155.298C253.353 155.43 253.161 155.616 253.019 155.854C252.879 156.093 252.81 156.368 252.81 156.68V161H250.692ZM262.774 155.541L260.835 155.661C260.802 155.495 260.731 155.346 260.621 155.213C260.512 155.077 260.368 154.969 260.189 154.89C260.013 154.807 259.803 154.766 259.557 154.766C259.229 154.766 258.953 154.835 258.727 154.974C258.502 155.11 258.389 155.293 258.389 155.521C258.389 155.704 258.462 155.858 258.608 155.984C258.754 156.11 259.004 156.211 259.359 156.287L260.741 156.565C261.483 156.718 262.037 156.963 262.401 157.301C262.766 157.639 262.948 158.083 262.948 158.634C262.948 159.134 262.801 159.573 262.506 159.951C262.214 160.329 261.813 160.624 261.302 160.836C260.795 161.045 260.21 161.149 259.547 161.149C258.537 161.149 257.731 160.939 257.131 160.518C256.535 160.094 256.185 159.517 256.082 158.788L258.165 158.678C258.228 158.987 258.381 159.222 258.623 159.384C258.865 159.543 259.175 159.623 259.552 159.623C259.924 159.623 260.222 159.552 260.447 159.409C260.676 159.263 260.792 159.076 260.795 158.847C260.792 158.655 260.711 158.498 260.552 158.375C260.393 158.249 260.147 158.153 259.816 158.087L258.494 157.823C257.748 157.674 257.193 157.415 256.828 157.048C256.467 156.68 256.286 156.211 256.286 155.641C256.286 155.15 256.419 154.728 256.684 154.373C256.952 154.018 257.329 153.745 257.812 153.553C258.3 153.36 258.87 153.264 259.523 153.264C260.487 153.264 261.246 153.468 261.8 153.876C262.356 154.283 262.681 154.839 262.774 155.541ZM267.762 161.149C266.976 161.149 266.3 160.99 265.733 160.672C265.17 160.35 264.736 159.896 264.431 159.31C264.126 158.72 263.973 158.022 263.973 157.217C263.973 156.431 264.126 155.742 264.431 155.148C264.736 154.555 265.165 154.093 265.718 153.761C266.275 153.43 266.928 153.264 267.677 153.264C268.181 153.264 268.65 153.345 269.084 153.508C269.522 153.667 269.903 153.907 270.228 154.229C270.556 154.55 270.811 154.955 270.993 155.442C271.176 155.926 271.267 156.492 271.267 157.142V157.724H264.819V156.411H269.273C269.273 156.106 269.207 155.836 269.074 155.601C268.942 155.366 268.758 155.182 268.522 155.049C268.29 154.913 268.02 154.845 267.712 154.845C267.391 154.845 267.106 154.92 266.857 155.069C266.612 155.215 266.419 155.412 266.28 155.661C266.141 155.906 266.07 156.179 266.066 156.481V157.729C266.066 158.107 266.136 158.433 266.275 158.708C266.418 158.983 266.618 159.195 266.877 159.344C267.135 159.494 267.442 159.568 267.797 159.568C268.032 159.568 268.247 159.535 268.443 159.469C268.638 159.402 268.806 159.303 268.945 159.17C269.084 159.038 269.19 158.875 269.263 158.683L271.222 158.812C271.123 159.283 270.919 159.694 270.611 160.045C270.306 160.393 269.911 160.665 269.427 160.861C268.947 161.053 268.392 161.149 267.762 161.149ZM275.463 161.124C274.883 161.124 274.357 160.975 273.887 160.677C273.419 160.375 273.048 159.933 272.773 159.349C272.501 158.763 272.366 158.044 272.366 157.192C272.366 156.317 272.506 155.589 272.788 155.009C273.07 154.426 273.444 153.99 273.912 153.702C274.382 153.41 274.898 153.264 275.458 153.264C275.885 153.264 276.242 153.337 276.527 153.483C276.815 153.625 277.047 153.804 277.223 154.02C277.402 154.232 277.538 154.441 277.63 154.646H277.695V150.818H279.808V161H277.72V159.777H277.63C277.531 159.989 277.39 160.2 277.208 160.408C277.029 160.614 276.795 160.785 276.507 160.92C276.222 161.056 275.874 161.124 275.463 161.124ZM276.134 159.439C276.475 159.439 276.764 159.346 276.999 159.161C277.238 158.972 277.42 158.708 277.546 158.37C277.675 158.032 277.74 157.636 277.74 157.182C277.74 156.728 277.677 156.333 277.551 155.999C277.425 155.664 277.243 155.405 277.004 155.223C276.765 155.041 276.475 154.95 276.134 154.95C275.786 154.95 275.493 155.044 275.254 155.233C275.015 155.422 274.835 155.684 274.712 156.018C274.589 156.353 274.528 156.741 274.528 157.182C274.528 157.626 274.589 158.019 274.712 158.36C274.838 158.698 275.019 158.963 275.254 159.156C275.493 159.344 275.786 159.439 276.134 159.439Z" fill="black"/>
<path d="M366.619 203.593V201.818H374.981V203.593H371.864V212H369.736V203.593H366.619ZM378.437 207.585V212H376.319V201.818H378.377V205.711H378.467C378.639 205.26 378.917 204.907 379.302 204.652C379.686 204.393 380.168 204.264 380.748 204.264C381.279 204.264 381.741 204.38 382.136 204.612C382.533 204.841 382.842 205.171 383.06 205.602C383.282 206.029 383.392 206.541 383.388 207.138V212H381.271V207.516C381.274 207.045 381.155 206.679 380.913 206.417C380.674 206.155 380.339 206.024 379.908 206.024C379.62 206.024 379.365 206.085 379.143 206.208C378.924 206.331 378.752 206.51 378.626 206.745C378.503 206.977 378.44 207.257 378.437 207.585ZM385.055 212V204.364H387.173V212H385.055ZM386.119 203.379C385.804 203.379 385.534 203.275 385.309 203.066C385.087 202.854 384.976 202.6 384.976 202.305C384.976 202.014 385.087 201.763 385.309 201.555C385.534 201.343 385.804 201.237 386.119 201.237C386.434 201.237 386.702 201.343 386.924 201.555C387.15 201.763 387.263 202.014 387.263 202.305C387.263 202.6 387.15 202.854 386.924 203.066C386.702 203.275 386.434 203.379 386.119 203.379ZM395.223 206.541L393.284 206.661C393.251 206.495 393.18 206.346 393.071 206.213C392.961 206.077 392.817 205.969 392.638 205.89C392.462 205.807 392.252 205.766 392.007 205.766C391.679 205.766 391.402 205.835 391.176 205.974C390.951 206.11 390.838 206.293 390.838 206.521C390.838 206.704 390.911 206.858 391.057 206.984C391.203 207.11 391.453 207.211 391.808 207.287L393.19 207.565C393.932 207.718 394.486 207.963 394.85 208.301C395.215 208.639 395.397 209.083 395.397 209.634C395.397 210.134 395.25 210.573 394.955 210.951C394.663 211.329 394.262 211.624 393.752 211.836C393.245 212.045 392.66 212.149 391.997 212.149C390.986 212.149 390.18 211.939 389.581 211.518C388.984 211.094 388.634 210.517 388.532 209.788L390.615 209.678C390.678 209.987 390.83 210.222 391.072 210.384C391.314 210.543 391.624 210.623 392.002 210.623C392.373 210.623 392.671 210.552 392.897 210.409C393.125 210.263 393.241 210.076 393.245 209.847C393.241 209.655 393.16 209.498 393.001 209.375C392.842 209.249 392.597 209.153 392.265 209.087L390.943 208.823C390.197 208.674 389.642 208.415 389.277 208.048C388.916 207.68 388.735 207.211 388.735 206.641C388.735 206.15 388.868 205.728 389.133 205.373C389.402 205.018 389.778 204.745 390.262 204.553C390.749 204.36 391.319 204.264 391.972 204.264C392.936 204.264 393.695 204.468 394.249 204.876C394.806 205.283 395.13 205.839 395.223 206.541ZM406.325 206.541L404.386 206.661C404.353 206.495 404.282 206.346 404.172 206.213C404.063 206.077 403.919 205.969 403.74 205.89C403.564 205.807 403.353 205.766 403.108 205.766C402.78 205.766 402.503 205.835 402.278 205.974C402.053 206.11 401.94 206.293 401.94 206.521C401.94 206.704 402.013 206.858 402.159 206.984C402.304 207.11 402.555 207.211 402.909 207.287L404.291 207.565C405.034 207.718 405.587 207.963 405.952 208.301C406.317 208.639 406.499 209.083 406.499 209.634C406.499 210.134 406.351 210.573 406.056 210.951C405.765 211.329 405.364 211.624 404.853 211.836C404.346 212.045 403.761 212.149 403.098 212.149C402.087 212.149 401.282 211.939 400.682 211.518C400.085 211.094 399.736 210.517 399.633 209.788L401.716 209.678C401.779 209.987 401.932 210.222 402.174 210.384C402.416 210.543 402.725 210.623 403.103 210.623C403.474 210.623 403.773 210.552 403.998 210.409C404.227 210.263 404.343 210.076 404.346 209.847C404.343 209.655 404.262 209.498 404.103 209.375C403.943 209.249 403.698 209.153 403.367 209.087L402.044 208.823C401.299 208.674 400.743 208.415 400.379 208.048C400.018 207.68 399.837 207.211 399.837 206.641C399.837 206.15 399.969 205.728 400.235 205.373C400.503 205.018 400.879 204.745 401.363 204.553C401.85 204.36 402.42 204.264 403.073 204.264C404.038 204.264 404.797 204.468 405.35 204.876C405.907 205.283 406.232 205.839 406.325 206.541ZM407.832 212V204.364H409.95V212H407.832ZM408.896 203.379C408.582 203.379 408.311 203.275 408.086 203.066C407.864 202.854 407.753 202.6 407.753 202.305C407.753 202.014 407.864 201.763 408.086 201.555C408.311 201.343 408.582 201.237 408.896 201.237C409.211 201.237 409.48 201.343 409.702 201.555C409.927 201.763 410.04 202.014 410.04 202.305C410.04 202.6 409.927 202.854 409.702 203.066C409.48 203.275 409.211 203.379 408.896 203.379ZM414.461 212.124C413.881 212.124 413.355 211.975 412.885 211.677C412.418 211.375 412.046 210.933 411.771 210.349C411.499 209.763 411.364 209.044 411.364 208.192C411.364 207.317 411.504 206.589 411.786 206.009C412.068 205.426 412.442 204.99 412.91 204.702C413.38 204.41 413.896 204.264 414.456 204.264C414.883 204.264 415.24 204.337 415.525 204.483C415.813 204.625 416.045 204.804 416.221 205.02C416.4 205.232 416.536 205.441 416.628 205.646H416.693V201.818H418.806V212H416.718V210.777H416.628C416.529 210.989 416.388 211.2 416.206 211.408C416.027 211.614 415.793 211.785 415.505 211.92C415.22 212.056 414.872 212.124 414.461 212.124ZM415.132 210.439C415.473 210.439 415.762 210.346 415.997 210.161C416.236 209.972 416.418 209.708 416.544 209.37C416.673 209.032 416.738 208.636 416.738 208.182C416.738 207.728 416.675 207.333 416.549 206.999C416.423 206.664 416.241 206.405 416.002 206.223C415.763 206.041 415.473 205.95 415.132 205.95C414.784 205.95 414.491 206.044 414.252 206.233C414.013 206.422 413.833 206.684 413.71 207.018C413.588 207.353 413.526 207.741 413.526 208.182C413.526 208.626 413.588 209.019 413.71 209.36C413.836 209.698 414.017 209.963 414.252 210.156C414.491 210.344 414.784 210.439 415.132 210.439ZM424.027 212.149C423.242 212.149 422.566 211.99 421.999 211.672C421.436 211.35 421.001 210.896 420.696 210.31C420.392 209.72 420.239 209.022 420.239 208.217C420.239 207.431 420.392 206.742 420.696 206.148C421.001 205.555 421.431 205.093 421.984 204.761C422.541 204.43 423.194 204.264 423.943 204.264C424.447 204.264 424.916 204.345 425.35 204.508C425.787 204.667 426.169 204.907 426.493 205.229C426.821 205.55 427.077 205.955 427.259 206.442C427.441 206.926 427.532 207.492 427.532 208.142V208.724H421.084V207.411H425.539C425.539 207.106 425.473 206.836 425.34 206.601C425.207 206.366 425.023 206.182 424.788 206.049C424.556 205.913 424.286 205.845 423.978 205.845C423.656 205.845 423.371 205.92 423.123 206.069C422.877 206.215 422.685 206.412 422.546 206.661C422.407 206.906 422.335 207.179 422.332 207.481V208.729C422.332 209.107 422.402 209.433 422.541 209.708C422.683 209.983 422.884 210.195 423.142 210.344C423.401 210.494 423.708 210.568 424.062 210.568C424.298 210.568 424.513 210.535 424.709 210.469C424.904 210.402 425.071 210.303 425.211 210.17C425.35 210.038 425.456 209.875 425.529 209.683L427.488 209.812C427.388 210.283 427.184 210.694 426.876 211.045C426.571 211.393 426.177 211.665 425.693 211.861C425.212 212.053 424.657 212.149 424.027 212.149ZM437.052 208.749V204.364H439.17V212H437.136V210.613H437.057C436.884 211.06 436.598 211.42 436.197 211.692C435.799 211.964 435.313 212.099 434.74 212.099C434.23 212.099 433.78 211.983 433.393 211.751C433.005 211.519 432.702 211.19 432.483 210.762C432.267 210.335 432.158 209.822 432.155 209.226V204.364H434.273V208.848C434.276 209.299 434.397 209.655 434.636 209.917C434.874 210.179 435.194 210.31 435.595 210.31C435.85 210.31 436.089 210.252 436.311 210.136C436.533 210.016 436.712 209.841 436.848 209.609C436.987 209.377 437.055 209.09 437.052 208.749ZM440.864 214.864V204.364H442.952V205.646H443.046C443.139 205.441 443.273 205.232 443.449 205.02C443.628 204.804 443.86 204.625 444.145 204.483C444.433 204.337 444.791 204.264 445.219 204.264C445.776 204.264 446.289 204.41 446.76 204.702C447.231 204.99 447.607 205.426 447.889 206.009C448.17 206.589 448.311 207.317 448.311 208.192C448.311 209.044 448.174 209.763 447.899 210.349C447.627 210.933 447.256 211.375 446.785 211.677C446.318 211.975 445.794 212.124 445.214 212.124C444.803 212.124 444.453 212.056 444.165 211.92C443.88 211.785 443.646 211.614 443.464 211.408C443.282 211.2 443.142 210.989 443.046 210.777H442.982V214.864H440.864ZM442.937 208.182C442.937 208.636 443 209.032 443.126 209.37C443.252 209.708 443.434 209.972 443.673 210.161C443.911 210.346 444.201 210.439 444.543 210.439C444.887 210.439 445.179 210.344 445.418 210.156C445.656 209.963 445.837 209.698 445.96 209.36C446.086 209.019 446.149 208.626 446.149 208.182C446.149 207.741 446.087 207.353 445.965 207.018C445.842 206.684 445.661 206.422 445.423 206.233C445.184 206.044 444.891 205.95 444.543 205.95C444.198 205.95 443.906 206.041 443.668 206.223C443.432 206.405 443.252 206.664 443.126 206.999C443 207.333 442.937 207.728 442.937 208.182Z" fill="black"/>
<path d="M411.536 49.4645C409.583 47.5118 406.417 47.5118 404.464 49.4645L372.645 81.2843C370.692 83.2369 370.692 86.4027 372.645 88.3553C374.597 90.308 377.763 90.308 379.716 88.3553L408 60.0711L436.284 88.3553C438.237 90.308 441.403 90.308 443.355 88.3553C445.308 86.4027 445.308 83.2369 443.355 81.2843L411.536 49.4645ZM413 177L413 53L403 53L403 177L413 177Z" fill="black"/>
</svg>
